<?xml version="1.0" encoding="utf-8"?>
<!-- Generator: Adobe Illustrator 27.1.1, SVG Export Plug-In . SVG Version: 6.00 Build 0)  -->
<svg version="1.1" xmlns="http://www.w3.org/2000/svg" xmlns:xlink="http://www.w3.org/1999/xlink" x="0px" y="0px"
	 viewBox="0 0 595.28 639.26" style="enable-background:new 0 0 595.28 639.26;" xml:space="preserve">
<style type="text/css">
	.st0{fill:#E30613;}
	.st1{display:none;}
	.st2{fill:#E5241F;}
	.st3{display:inline;fill:#FFFFFF;stroke:#000000;stroke-miterlimit:10;}
	.st4{display:inline;fill:#FFFFFF;}
	.st5{display:inline;fill:none;}
	.st6{display:inline;stroke:#FFFFFF;stroke-miterlimit:10;}
	.st7{fill:#FFFFFF;}
</style>
<g id="Calque_4">
	<path class="st0" d="M15.26,369.25c0,0,33.95,23.47,86.18,43.09c54.27,20.38,112.36,34.12,198.77,26.95
		c147.07-12.21,211.13-53.03,275.99-43.07c2.61-3.15,33.42-90.62-14.32-198.72S405.91,48.06,405.91,48.06S259.5-15.53,119.45,89.39
		S15.26,369.25,15.26,369.25z"/>
	<path class="st0" d="M40.99,444.68c28.12,6.21,60.39,34.34,256.65,3.32c25.45-4.02,192.95-43.78,267.29-19.23
		c0.01,12.45-45.23,75.45-66.34,95.95c-27.31,26.53-84.2,73.58-180.17,78.94c-112.58,6.28-178.38-41.69-212.28-72.69
		C76.57,503.92,45.22,459.12,40.99,444.68z"/>
</g>
<g id="Coca_Cola_Noir" class="st1">
	<circle class="st2" cx="337.37" cy="308.75" r="292.76"/>
	<path class="st3" d="M154.96,275.09"/>
	<path class="st3" d="M258.72,245.3"/>
	<path class="st4" d="M413.37,311.71"/>
	<path class="st4" d="M407.18,312.95"/>
	<path class="st5" d="M40.4,443.71c0,0,90.18,44.75,261.58,2.76s261.58-18.59,261.58-18.59"/>
	<path class="st6" d="M163.08,264.03c0.55-0.64,0.78-1.06,0.78-1.06L163.08,264.03z"/>
	<path class="st6" d="M151.48,243.1c-9.13-6.98-29.51,4.35-45.53,25.29c-16.01,20.95-21.6,43.59-12.47,50.57
		c9.13,6.98,29.51-4.35,45.53-25.29c4.4-5.75,8-11.63,10.74-17.28c3.04-0.59,5.15-1.36,5.2-1.37c0.01,0.02,0,0.06,0.01,0.08
		c0,0-20.18,23.78-6.39,41.05c11.35,14.21,35.69-6.32,43.95-14.03c-0.21,1.08-0.38,2.21-0.48,3.39c-0.48,5.8,0.66,13.99,5.64,15.52
		c12,3.68,24.12-11.56,24.12-11.56s-1.45,20.33,17.94,8.28c19.39-12.04,34.5-37.5,34.5-37.5h-6.53c0,0-22.5,31.44-25.75,24.06
		c-1.15-2.61,34.59-61.65,34.59-61.65h-16.24l-1.85,2.64c0,0-7.84-14.66-29.51,6.01c-12.89,12.29-22.69,25.4-27.99,33.09
		c-14.14,14.4-34.26,29.57-36.43,20.99c-2.9-11.52,16.7-44.13,30-52.84c12.42-8.13,11.14,0.18,10.92,1.32
		c-2.33,0.19-5,1.32-7.37,3.32c-4.4,3.7-6.09,8.94-3.78,11.7s7.25,2.16,11.61-3.25l3.51-6.03c0,0,6.79-15.75-6.9-18.56
		c-11.49-2.36-30.73,14.02-40.87,24.92l1.43-1.94c-1.3,1.52-4.4,4.27-10.41,5.53C157.14,257.53,157.07,247.37,151.48,243.1z
		 M136.47,284.28c-11.14,14.57-23.09,26.15-27.05,18.86c-3.15-5.81,3.17-22.63,14.66-36.93c0.51-0.63,0.98-1.22,1.45-1.79
		c0.04,1.08,0.94,3.63,6.34,8.78c2.65,2.53,6.17,3.54,9.66,3.78C140.04,279.37,138.36,281.8,136.47,284.28z M145.36,270.23
		c-0.52-0.01-1.06-0.02-1.61-0.05c-12.99-0.62-12.23-10.07-11.58-13.33c0.09-0.09,0.18-0.18,0.27-0.27
		c8.21-8.19,15.45-11.59,17.31-6.19C151.11,254.33,149.7,261.56,145.36,270.23z M229.73,269.28c7.76-10.08,15.92-17.34,15.92-17.34
		s6.15-5.25,8.38-0.31c0,0-31.5,59.82-40.41,53.39C208.47,301.3,219.1,283.1,229.73,269.28z"/>
	<path class="st6" d="M195.42,333.34c-18.62-1.46-55.89,8.43-69.7,11.75c-10.68,2.56-26.14,5.28-35.25,5.94s-22.44-2.11-27.85-10.56
		s-5.81-16.24-4.88-25.87c0.92-9.64,5.16-20.18,6.86-24.16c0.52-1.21,2.24-6.65,12.14-23.63c7.85-13.46,14.41-20.2,14.41-20.2
		c7.74-8.42,7.37-7.66,10.28-11.09c2.9-3.43,11.22-10.69,12.94-12.28c1.72-1.58,5.17-4.02,5.17-4.02s14.43-10.26,22.32-9.92
		s4.85,7.55,4.85,7.55c-2.96-1.8-10.14,3.26-12.04,9.25c-2.18,6.84,3.33,11.46,9.08,6.53c6.91-5.91,8.26-12.4,8.26-12.4
		s4.43-14.35-7.31-17.77s-24.65,1.55-45.8,14.31c-21.15,12.75-44.47,45.4-44.47,45.4s-26.75,41.67-19.9,66.55
		c6.84,24.88,22.08,30.17,37.01,31.41s35.22-4.08,57.9-10.88c21.31-6.39,61.99-4.39,68.05,14.31c20.53-25.5,60.33,0,60.33,0
		C235.63,335.54,203.68,333.99,195.42,333.34z"/>
	<polygon class="st6" points="303.95,242.76 288.36,242.76 279.76,256.58 296.15,256.58 	"/>
	<path class="st6" d="M504.49,281.86l-1.85,2.64c0,0-7.84-14.66-29.51,6.01c-19.86,18.94-32.41,39.83-32.41,39.83
		s-16.01,22.55-18.19,12.45c-1.96-9.09,6.94-26.64,10.09-32.49c12.19-7.92,10.85-5.75,26.22-20.53
		c12.3-11.83,37.46-39.95,39.37-43.03h-6.62c0,0-36.41,44.63-53.45,52.52c0,0,23.89-41.38,38.01-58.35
		c14.51-17.45,17.82-21.59,32.8-31.07c0,0,6.94-3.94-3.31,15.93c6.31-0.95,6.31-0.95,6.31-0.95s8.04-16.88,2.52-19.87
		c-5.52-3-14.98-1.89-31.07,12.93s-28.55,29.02-28.55,29.02s-31.01,39.28-37.83,59.25c-1.86,1.36-4.58,2.76-8.44,3.51
		c5.1-12.76,5.3-23.67-0.55-28.14c-9.13-6.98-29.51,4.35-45.53,25.29c-16.01,20.95-21.6,43.59-12.47,50.57
		c9.13,6.98,29.51-4.35,45.53-25.29c3.57-4.67,6.62-9.43,9.11-14.07c2.2-0.01,4.3-0.16,6.13-0.35c0,0-12.52,28.91-5.3,38.35
		s19.2,2.67,30.71-11.3c-0.48,5.8,0.66,13.99,5.64,15.52c12,3.68,24.12-11.56,24.12-11.56s-1.45,20.33,17.94,8.28
		c19.39-12.04,34.5-37.5,34.5-37.5h-6.53c0,0-22.5,31.44-25.75,24.06c-1.15-2.61,34.59-61.65,34.59-61.65H504.49z M393.02,322.7
		c-11.14,14.57-23.09,26.15-27.05,18.86c-3.15-5.81,3.17-22.63,14.66-36.93c3.18-3.96,5.48-6.72,8.11-9.37l-6.46,8.08
		c0,0-1.58,2.16,6.22,10.04c2.08,2.1,5.08,3.31,8.35,3.97C395.68,319.1,394.4,320.89,393.02,322.7z M401.11,310.19
		c-0.25-0.01-0.49-0.01-0.75-0.03c-14.95-0.76-11.69-13.94-11.34-15.21c8.19-8.16,15.41-11.54,17.27-6.16
		C407.75,292.97,406.09,300.83,401.11,310.19z M457.79,344.23c-5.15-3.72,5.48-21.92,16.11-35.74
		c7.76-10.08,15.92-17.34,15.92-17.34s6.15-5.25,8.38-0.31C498.2,290.83,466.7,350.66,457.79,344.23z"/>
	<path class="st6" d="M352.76,283.04c-24.64-15-53.19,38.55-46.34,46.34c4.55-5.89,22.23-16.34,22.23-16.34
		c0.27-8.04,13.35-29.54,20.89-24.33c5.62,3.88-5.36,29.41-15.54,41.47c-10.18,12.05-22.5,21.96-34.44,14.53
		c-11.94-7.44-1.19-38.37,4.38-47.47s18.81-38.57,46.93-64.55c28.12-25.98,42.32-23.57,42.32-23.57s-8.48,6.04-14.16,11.25
		c-21.14,19.38-24.68,36.43-21.19,42.05c3.48,5.62,17.9,7.85,31.87-12.74c8.82-12.99,17.33-28.89,11.68-39.18l1,1.33
		c20.29-4.35,58.43,25.99,56.69,24.61l12.59-13.12c0,0-1.25-0.08-22.02-12.13c-29.18-16.83-50.96-4.65-51.34-4.79l0.66,0.87
		c-1.83-1.82-4.32-3.38-7.58-4.58c-25.11-2.41-48.55,18.21-48.55,18.21c-27.59,21.86-33.21,30-50.99,55.18s-25.88,60.27-16.24,73.12
		c9.64,12.86,25.18,15.8,46.61,1.61s32.14-44.46,32.14-44.46S361.33,290.54,352.76,283.04z M382.78,249.67
		c0,0-26.27,25.07-19.84,2.57c6.43-22.5,33.75-37.77,33.75-37.77C399.09,231.08,382.78,249.67,382.78,249.67z"/>
	<path class="st6" d="M490.16,229.74l-11.69,13.66c9.73,3.75,26.69-1.34,26.69-1.34c26.79-9.91,39.91-26.79,46.61-39.94
		C522.57,231.82,490.16,229.74,490.16,229.74z"/>
</g>
<g id="Coca_Cola_Blanc">
	<path class="st7" d="M407.31,310.85c3.26-7.81,6.3-17.71,4.06-23.82c0.09-0.49-2.78-9.85-15.54-6.28c0,0-15.4,3.33-34.34,28.33
		c-20.67,27.28-16.87,45.16-12.95,49.06c3.03,3.01,10.47,6.89,27.28-5.51c17.09-14.06,25.8-30.02,25.8-30.02s0.76-1.23,2.29-4.35
		c2.31,0.14,5.15-0.22,6.76-0.5c14.01-2.49,15.64-18.78,15.64-18.78S417.17,308.19,407.31,310.85z M405.49,291.54
		c2.42,3.12,0.63,9.42-4.29,18.81c-0.16,0-0.66,1.2-0.81,1.2c-12.88-3.13-11.17-11.71-10.17-15.24
		C396.45,290.05,402.17,287.26,405.49,291.54z M393.62,323.02c-15.21,20.69-23.31,23.81-26.7,20.25
		c-3.79-3.98,1.45-16.97,11.31-31.81c1.17-1.76,2.37-3.48,3.58-5.13c5.82,8.44,15.94,11.21,16.09,10.71c0,0-0.8-0.16-0.47-0.13
		C396.14,318.95,395.19,320.89,393.62,323.02z"/>
	<path class="st7" d="M200.9,249.31c-8.37,2.06-16.72,11.57-23.48,21.21c0,0-16.97,25.15-12.35,35.4
		c4.63,10.25,22.21-3.6,29.81-13.74l10.19-12.22l-5.89,16.47l-5.23,4.96c0,0-18.82,19.38-33.73,20.06
		c-9.12,0.42-15.54-5.29-15.87-16.53c-0.33-11.24,13.44-32.49,13.44-32.49s4.1-5.69,11.91-13.63c0,0,0.53-0.55,1.46-1.45
		c0.56-0.54,1.27-1.22,2.1-1.98c5.33-4.93,15.52-13.55,22.78-14.71c10.25-1.64,14.71,4.58,15.32,8.65
		c1.1,7.34-6.72,23.65-13.89,20.9c0,0-3.53-0.97-3.34-4.45c0.3-5.5,4.21-10.75,11.69-11.52C205.84,254.24,207.9,247.59,200.9,249.31
		z"/>
	<path class="st7" d="M150.72,270.68c3.26-7.81,6.3-17.71,4.06-23.82c0,0-3.71-7.62-13.63-5.96c0,0-17.31,3.01-36.25,28.01
		c-20.67,27.28-16.87,45.16-12.95,49.06c3.03,3.01,10.47,6.89,27.28-5.51c17.09-14.06,25.8-30.02,25.8-30.02s1.14-2,2.68-5.11
		c2.31,0.14,4.77,0.55,6.38,0.26c14.01-2.49,15.64-18.78,15.64-18.78S160.57,268.02,150.72,270.68z M148.89,251.37
		c2.42,3.12-1.1,15.12-4.28,19.71c-0.16,0,0,0-0.16,0c-13.64-2.48-11.84-11.42-10.84-14.95
		C139.85,249.88,145.58,247.09,148.89,251.37z M137.58,283.18c-15.21,20.69-23.87,23.48-27.26,19.92
		c-3.79-3.98,1.45-16.97,11.31-31.81c1.17-1.76,2.56-3.21,3.83-4.79c5.9,8.15,15.83,10.37,15.83,10.37s0.21,0.02,0.54,0.04
		C140.56,278.95,139.15,281.05,137.58,283.18z"/>
	<path class="st7" d="M146.23,216.54c0,0,4.69-17.64-28.94,4.41c-24.25,18.47-40.78,45.53-43.54,51.26
		c-3,6.22-22.94,36.76-15.43,60.63c7.72,24.53,41.34,18.74,56.77,14.61c8.1-2.17,66.7-16.54,86.81-14.06
		c13.5,1.66,42.44,8.54,56.22,30.32c-22.05-12.68-53.47-17.36-60.91,0c0,0-11.85-28.66-67.8-14.06
		c-55.95,14.61-70.55,13.5-84.88-0.28c-14.33-13.78-12.4-46.58,0-69.73c12.4-23.15,27.84-42.44,47.4-57.88s39.41-19.84,39.41-19.84
		s20.39-5.51,22.05,12.68c0.55,10.75-9.92,19.84-14.06,19.84c-3.08,0-8.94-5.95-0.98-14.08
		C143.65,216.08,146.23,216.54,146.23,216.54z"/>
	<path class="st7" d="M242.09,304.72c-5.79,1.04,34.6-62.14,34.6-62.14h-17.13l-1.5,2.78c-9.19-12.25-25.46,3.23-25.46,3.23
		c-6.71,5.68-28.5,28.87-36.56,48.03c-2.41,5.74-7.56,17.93-2.73,22.63c0.92,0.9,2.19,1.53,3.89,1.79
		c12.73,1.98,24.53-11.81,24.53-11.81s-4.17,13.31,10.18,11.81c14.35-1.49,41.19-39.35,41.19-39.35s0,0-6.36-0.12
		C246.95,305.06,247.88,303.68,242.09,304.72z M219.4,303.54c-2.86,2.72-4.11,2.53-5.46,1.72c-8.78-5.29,24.65-46.54,24.65-46.54
		s11.54-14.79,15.75-8.06C254.35,250.67,232.51,291.08,219.4,303.54z"/>
	<polygon class="st7" points="288.53,242.69 279.99,256.76 295.51,256.76 304.16,242.69 	"/>
	<g>
		<path class="st7" d="M399.14,206.3c-4.22-2.97-10.25-8.87-35.84,2.17c-26.36,11.37-51.8,42.08-51.78,41.81
			c-3.06,3.6-32.04,40.52-37.77,64.21c-7.43,30.73,5.77,47.5,25.83,45.69c20.05-1.8,37.54-23.64,37.54-23.64s9.5-8.71,17.2-30.21
			c7.7-21.5-5.05-26.38-5.05-26.38c-19.29-7.05-43.54,28.65-43.05,49.81c9.38-9.98,21.76-15.51,21.76-15.51s5.99-25.53,19.35-25.88
			c7.8-0.2,2.38,25.55-12.78,42.12c-20.37,22.26-29.94,17.58-35.5,14.05c0,0-10.92-6.29,0.53-36.77
			c11.45-30.48,36.45-61.52,43.87-67.91s20.2-20.43,37.67-28.42c10.04-4.34,12.33-1.83,12.33-1.83s-23.63,17.05-31.85,31.85
			c-6.85,12.33-7.42,24.08,3.77,25c9.93,0.81,19.62-10.63,21.6-13.36c0,0,1.38-1.76,1.62-2.08c2.95-3.94,11.48-14.46,13.99-31.92
			c0.09-3.31-0.11-6.73-0.11-6.73c12.52-7.9,49.78,20.92,56.49,24.08l12.33-12.9c-7.34-1.75-23.4-16.32-35.95-19.18
			C414.69,199.67,399.14,206.3,399.14,206.3z M363.48,260.09c-9.54-14.05,29.95-45.85,32.86-45.85
			C401.11,234.11,369.57,269.05,363.48,260.09z"/>
		<path class="st7" d="M490.43,229.08l-11.93,14.84c0,0,47.18,9.8,73.68-41.88C526.21,229.34,494.93,231.73,490.43,229.08z"/>
	</g>
	<path class="st7" d="M486.59,344.02c-1.14-5.77,34.6-62.14,34.6-62.14h-17.13l-1.5,2.78c-9.19-12.25-27.51,3.55-27.51,3.55
		c-13.25,10.83-28.83,28.74-36.4,47.38c-2.34,5.77-5.68,18.26-0.85,22.96c0.92,0.9,2.19,1.53,3.89,1.79
		c12.73,1.98,24.53-11.81,24.53-11.81s-4.17,13.31,10.18,11.81c14.35-1.49,41.56-41.06,41.56-41.06s-3.2,0.24-5.76,0.21
		C489.83,345.09,487.05,346.35,486.59,344.02z M463.9,342.84c-2.86,2.72-4.11,2.53-5.46,1.72c-8.78-5.29,24.65-46.54,24.65-46.54
		s11.54-14.79,15.75-8.06C498.85,289.97,477.01,330.38,463.9,342.84z"/>
	<path class="st7" d="M442.57,336.53c0,0-14.07,25.59-31.55,22.78c-17.48-2.8-0.34-41.56-0.34-41.56s21.68-44.02,46.2-73.09
		c17.9-21.23,44.04-42.62,54.25-41.07c9.08,1.82,3.63,15.89,1.36,21.11c-6.36,1.14-6.36,1.14-6.36,1.14s10.9-21.79,0-14.76
		c-10.9,7.04-34.5,34.47-38.36,39.95c-12.45,17.66-17.03,20.66-29.74,48.12c0,0,32.46-22.25,53.35-51.98
		c6.58-0.68,6.58-0.68,6.58-0.68s-35.41,47.67-65.6,63.79c-7.26,17.25-14.35,37.18-6.04,34.25c8.31-2.93,22.38-25.63,22.38-25.63
		L442.57,336.53z"/>
</g>
</svg>
