<?xml version="1.0" encoding="utf-8"?>
<!-- Generator: Adobe Illustrator 27.1.1, SVG Export Plug-In . SVG Version: 6.00 Build 0)  -->
<svg version="1.1" id="Astro" xmlns="http://www.w3.org/2000/svg" xmlns:xlink="http://www.w3.org/1999/xlink" x="0px" y="0px"
	 viewBox="0 0 595.28 841.89" style="enable-background:new 0 0 595.28 841.89;" xml:space="preserve">
<style type="text/css">
	.st0{fill:url(#SVGID_1_);}
	.st1{clip-path:url(#SVGID_00000160165249754821647790000018221529661999087779_);}
	.st2{fill:url(#SVGID_00000116237479509116905250000001268279113322361990_);}
	.st3{opacity:0.3;fill:#B0D9ED;}
	.st4{opacity:0.5;fill:#B0D9ED;}
	.st5{opacity:0.3;fill:#F9FCFF;}
	.st6{opacity:0.25;fill:#B0D9ED;}
	
		.st7{clip-path:url(#Masque_00000017493349903296640680000016023405343557532555_);fill:url(#SVGID_00000181803033886389414520000012677440071486305171_);}
	.st8{clip-path:url(#Masque_00000017493349903296640680000016023405343557532555_);fill:#B5DFEA;}
	.st9{clip-path:url(#Masque_00000017493349903296640680000016023405343557532555_);}
	.st10{fill:#662483;}
	.st11{opacity:0.49;fill:#ADD8F2;}
	.st12{fill:url(#Tracé_casque_00000045600123000256134430000003007957949382221220_);}
	.st13{fill:url(#Elipse_00000150093257169650442710000014073616099939653019_);}
	.st14{fill:url(#Elipse_00000089573364392873769900000014743519420238152093_);}
	.st15{fill:url(#SVGID_00000142161445750238672270000004053424074291390898_);}
	.st16{fill:url(#SVGID_00000039100839628534169380000015267412321479096481_);}
	.st17{fill:url(#SVGID_00000168112053374606194440000001204969657305931137_);}
	.st18{fill:url(#SVGID_00000169524736970839993320000006120070455669022117_);}
	.st19{fill:url(#SVGID_00000096022391250728192720000013601718994175463569_);}
	.st20{fill:url(#SVGID_00000129924153770239626280000012607280689611195008_);}
	
		.st21{clip-path:url(#SVGID_00000075857293373665555110000013753438051165490862_);fill:url(#SVGID_00000128478128234444685580000015579336609543719095_);}
	
		.st22{clip-path:url(#SVGID_00000075857293373665555110000013753438051165490862_);fill:url(#SVGID_00000102529619935213506170000004380373431677826218_);}
	.st23{fill:url(#SVGID_00000124878290763954836080000010387859814657583489_);}
	.st24{fill:url(#SVGID_00000088824359173758788500000015986250812816354463_);}
	.st25{fill:url(#SVGID_00000116949864378994134890000001791459935951021246_);}
	.st26{opacity:0.3;fill:url(#Ombre_00000034062870679549518870000011951059887754706067_);}
	.st27{fill:url(#SVGID_00000167396377621017656260000009790206665622308260_);}
	.st28{fill:#B6E0ED;stroke:#951B81;stroke-width:0.25;stroke-miterlimit:10;}
	.st29{fill:url(#SVGID_00000083807933759163316560000009417583037661926285_);}
	.st30{fill:url(#SVGID_00000109752190369202415440000009779383945926193591_);}
	.st31{fill:url(#Shorts_00000156549211165587179270000011654396293813321608_);}
	.st32{fill:url(#SVGID_00000031888439263934237980000005741192700144059792_);}
	.st33{fill:url(#SVGID_00000000206299907507159070000003365736566491380897_);}
	.st34{fill:url(#SVGID_00000096761768407448944000000008764323470533181620_);}
	.st35{fill:url(#SVGID_00000146462782042870748920000002193573656029960380_);}
	.st36{fill:url(#SVGID_00000142155836817268316030000012712420320057224849_);}
	.st37{fill:url(#SVGID_00000139252733831075591000000000003091252891444125_);}
	.st38{fill:url(#SVGID_00000158731538865777706980000016755815406186216611_);}
	.st39{fill:url(#SVGID_00000137820021498664686020000008342890746781791916_);}
	.st40{fill:url(#SVGID_00000016062104519288779890000017803038210193525128_);}
	.st41{fill:url(#SVGID_00000127035273062480492440000017611178481209126539_);}
	.st42{fill:none;stroke:url(#SVGID_00000044141045003602612590000009454280750204683710_);stroke-width:2;stroke-miterlimit:10;}
	.st43{fill:#AEDBE1;}
	.st44{fill:url(#SVGID_00000173880336250723279370000018029513245805896091_);}
	
		.st45{fill:url(#SVGID_00000166658051561175327430000002939510050253452928_);stroke:url(#SVGID_00000100381242854736861890000014531941735987074227_);stroke-width:0.25;stroke-linecap:round;stroke-miterlimit:10;}
	
		.st46{fill:none;stroke:url(#SVGID_00000163757695915565158980000009205234746742914479_);stroke-width:3;stroke-linecap:round;stroke-miterlimit:10;}
	
		.st47{fill:none;stroke:url(#SVGID_00000118381488972308866870000002602049511152552590_);stroke-width:3;stroke-linecap:round;stroke-miterlimit:10;}
	.st48{fill:#FFFFFF;}
	.st49{fill:#E52421;}
	.st50{fill:#2A327F;}
	.st51{fill:url(#SVGID_00000014597811596130804200000004805224942545896593_);}
	.st52{fill:url(#SVGID_00000031906995537891863750000005141553902208967341_);}
	.st53{fill:url(#SVGID_00000087377516631769084670000008257960361954540685_);}
	.st54{fill:url(#SVGID_00000143602650875102381300000010225535180978520961_);}
	.st55{fill:url(#SVGID_00000021799627102346809780000011160811349172527533_);}
	.st56{fill:url(#SVGID_00000012471043249679278650000015900607442146927508_);}
	.st57{fill:url(#SVGID_00000168816743555643721310000004786515477215441326_);}
	.st58{fill:url(#SVGID_00000136394999042339362540000013311570695668401567_);}
	.st59{fill:url(#SVGID_00000007424203224443536830000004885732300699680177_);}
	.st60{fill:url(#SVGID_00000001642427356242748120000003713713099804053123_);}
	.st61{fill:url(#SVGID_00000090261105361644667460000001761352567503894711_);}
	.st62{fill:url(#SVGID_00000179606578143488534780000017931192239716399504_);}
</style>
<g id="Fond">
	
		<radialGradient id="SVGID_1_" cx="298.7406" cy="422.9443" r="380.797" gradientTransform="matrix(0.9441 0 0 0.9637 13.9667 13.3721)" gradientUnits="userSpaceOnUse">
		<stop  offset="0.2474" style="stop-color:#7294C9;stop-opacity:0.1"/>
		<stop  offset="1" style="stop-color:#F6F6F6"/>
	</radialGradient>
	<rect x="-1.35" class="st0" width="594.7" height="841.89"/>
</g>
<g id="Masque_Espace">
	<defs>
		<circle id="SVGID_00000044878916207245790350000013173457894765033118_" cx="297.64" cy="402.16" r="275.93"/>
	</defs>
	<clipPath id="SVGID_00000075869976883576110480000008631966767018993043_">
		<use xlink:href="#SVGID_00000044878916207245790350000013173457894765033118_"  style="overflow:visible;"/>
	</clipPath>
	<g id="Ciel_violet" style="clip-path:url(#SVGID_00000075869976883576110480000008631966767018993043_);">
		
			<linearGradient id="SVGID_00000074422420279308074300000000344444087442581902_" gradientUnits="userSpaceOnUse" x1="300.3675" y1="684.1796" x2="300.3675" y2="126.8009">
			<stop  offset="0.0837" style="stop-color:#7294C9"/>
			<stop  offset="0.6408" style="stop-color:#6C59A1"/>
			<stop  offset="1" style="stop-color:#67358B"/>
		</linearGradient>
		
			<rect x="13.74" y="110.92" style="fill:url(#SVGID_00000074422420279308074300000000344444087442581902_);" width="573.26" height="573.26"/>
	</g>
	
		<g id="Nuages_00000057868999156144635450000006851535039763086231_" style="clip-path:url(#SVGID_00000075869976883576110480000008631966767018993043_);">
		<g id="Calque_8">
		</g>
		<path class="st3" d="M35.56,401.64c27.25-34.69,77.47-40.73,112.17-13.48c19.63,15.42,30.09,38.19,30.54,61.34
			c21.25-9.8,47.1-7.63,66.77,7.82c17.08,13.41,25.54,33.73,24.53,53.87c8.87,2.07,17.44,6.07,25.08,12.06
			c27.29,21.43,32.58,60.5,12.4,88.36c1.67,1,3.3,2.12,4.88,3.35c20.01,15.72,23.5,44.69,7.77,64.71
			c-14.37,18.29-39.81,22.78-59.37,11.41c-0.33,0.52-0.69,1.02-1.07,1.51c-6.73,8.56-19.12,10.05-27.68,3.33
			c-7.06-5.55-9.32-14.95-6.12-22.88c-3.27-1.03-6.41-2.65-9.26-4.9c-10.14-7.96-13.6-21.29-9.51-32.8
			c-10.63,0.48-21.49-2.71-30.52-9.79c-20.02-15.72-23.5-44.7-7.78-64.71l0.06-0.08c-0.99-0.7-1.97-1.42-2.94-2.18
			c-3.74-2.94-7.06-6.2-9.96-9.73c-16.34,14.76-41.42,16.06-59.33,2c-7.45-5.85-12.61-13.53-15.34-21.92
			c-3.17-0.71-6.31-1.61-9.4-2.72c-0.67,1.17-1.45,2.31-2.3,3.4c-9.98,12.71-28.38,14.92-41.09,4.94
			c-9.88-7.76-13.41-20.6-9.81-31.91c-4.24-0.01-8.5-1.38-12.09-4.2c-8.56-6.73-10.05-19.12-3.33-27.68
			c4.13-5.26,10.4-7.85,16.59-7.5C16.16,442.16,21.31,419.78,35.56,401.64z"/>
		<path class="st3" d="M593.85,393.89c-27.25-34.69-77.47-40.73-112.17-13.48c-19.63,15.42-30.09,38.19-30.54,61.34
			c-21.25-9.8-47.1-7.63-66.77,7.82c-17.08,13.41-25.54,33.73-24.53,53.87c-8.87,2.07-17.44,6.07-25.08,12.06
			c-27.29,21.43-32.58,60.5-12.4,88.36c-1.67,1-3.3,2.12-4.88,3.35c-20.01,15.72-23.5,44.69-7.77,64.71
			c14.37,18.29,39.81,22.78,59.37,11.41c0.33,0.52,0.69,1.02,1.07,1.51c6.73,8.56,19.12,10.05,27.68,3.33
			c7.06-5.55,9.32-14.95,6.12-22.88c3.27-1.03,6.41-2.65,9.26-4.9c10.14-7.96,13.6-21.29,9.51-32.8
			c10.63,0.48,21.49-2.71,30.52-9.79c20.02-15.72,23.5-44.7,7.78-64.71l-0.06-0.08c0.99-0.7,1.97-1.42,2.94-2.18
			c3.74-2.94,7.06-6.2,9.96-9.73c16.34,14.76,41.42,16.06,59.33,2c7.45-5.85,12.61-13.53,15.34-21.92c3.17-0.71,6.31-1.61,9.4-2.72
			c0.67,1.17,1.45,2.31,2.3,3.4c9.98,12.71,28.38,14.92,41.09,4.94c9.88-7.76,13.41-20.6,9.81-31.91c4.24-0.01,8.5-1.38,12.09-4.2
			c8.56-6.73,10.05-19.12,3.33-27.68c-4.13-5.26-10.4-7.85-16.59-7.5C613.24,434.41,608.09,412.03,593.85,393.89z"/>
		<path class="st4" d="M569.15,597.46c0,60.12-48.74,108.86-108.87,108.86c-34.02,0-64.39-15.6-84.36-40.04
			c-14.52,28.39-44.06,47.82-78.15,47.82c-29.59,0-55.76-14.65-71.64-37.09c-11.25,5.25-23.8,8.18-37.03,8.18
			c-47.29,0-85.84-37.42-87.66-84.26c-2.63,0.34-5.32,0.51-8.05,0.51c-34.68,0-62.8-28.12-62.8-62.81c0-31.7,23.49-57.93,54.02-62.2
			c-0.08-0.83-0.12-1.67-0.12-2.52c0-14.84,12.03-26.87,26.87-26.87c12.24,0,22.57,8.18,25.81,19.37c4.37-1.65,9.1-2.55,14.05-2.55
			c17.57,0,32.49,11.37,37.81,27.15c10.99-9.47,25.31-15.19,40.95-15.19c34.69,0,62.81,28.13,62.81,62.81v0.14
			c1.65-0.09,3.31-0.14,4.98-0.14c6.48,0,12.79,0.7,18.86,2.04c5.09-29.58,30.87-52.08,61.9-52.08c12.91,0,24.91,3.89,34.89,10.58
			c3.99-1.91,8.12-3.58,12.36-5c-0.26-1.82-0.39-3.69-0.39-5.58c0-22.02,17.85-39.88,39.88-39.88c17.12,0,31.72,10.79,37.37,25.94
			c4.55-3.56,10.27-5.67,16.49-5.67c14.84,0,26.87,12.03,26.87,26.87c0,9.11-4.54,17.16-11.47,22.01
			C555.83,537.71,569.15,566.03,569.15,597.46z"/>
		<path class="st5" d="M605.4,468.97c0,31.28-25.36,56.63-56.64,56.63c-17.7,0-33.5-8.12-43.89-20.83
			c-7.55,14.77-22.92,24.88-40.66,24.88c-15.39,0-29.01-7.62-37.27-19.29c-5.85,2.73-12.38,4.26-19.26,4.26
			c-24.6,0-44.66-19.47-45.6-43.83c-1.37,0.18-2.77,0.27-4.19,0.27c-18.04,0-32.67-14.63-32.67-32.67
			c0-16.49,12.22-30.14,28.1-32.36c-0.04-0.43-0.06-0.87-0.06-1.31c0-7.72,6.26-13.98,13.98-13.98c6.37,0,11.74,4.26,13.43,10.08
			c2.27-0.86,4.73-1.33,7.31-1.33c9.14,0,16.9,5.91,19.67,14.12c5.72-4.93,13.17-7.9,21.3-7.9c18.05,0,32.67,14.63,32.67,32.67v0.07
			c0.86-0.05,1.72-0.07,2.59-0.07c3.37,0,6.65,0.36,9.81,1.06c2.65-15.39,16.06-27.09,32.2-27.09c6.72,0,12.96,2.02,18.15,5.5
			c2.08-0.99,4.22-1.86,6.43-2.6c-0.14-0.95-0.2-1.92-0.2-2.9c0-11.46,9.29-20.75,20.75-20.75c8.91,0,16.5,5.61,19.44,13.49
			c2.37-1.85,5.34-2.95,8.58-2.95c7.72,0,13.98,6.26,13.98,13.98c0,4.74-2.36,8.93-5.97,11.45
			C598.47,437.89,605.4,452.62,605.4,468.97z"/>
		<path class="st5" d="M-39.9,464.33c0,31.28,25.36,56.63,56.64,56.63c17.7,0,33.5-8.12,43.89-20.83
			c7.55,14.77,22.92,24.88,40.66,24.88c15.39,0,29.01-7.62,37.27-19.29c5.85,2.73,12.38,4.26,19.26,4.26
			c24.6,0,44.66-19.47,45.6-43.83c1.37,0.18,2.77,0.27,4.19,0.27c18.04,0,32.67-14.63,32.67-32.67c0-16.49-12.22-30.14-28.1-32.36
			c0.04-0.43,0.06-0.87,0.06-1.31c0-7.72-6.26-13.98-13.98-13.98c-6.37,0-11.74,4.26-13.43,10.08c-2.27-0.86-4.73-1.33-7.31-1.33
			c-9.14,0-16.9,5.91-19.67,14.12c-5.72-4.93-13.17-7.9-21.3-7.9c-18.05,0-32.67,14.63-32.67,32.67v0.07
			c-0.86-0.05-1.72-0.07-2.59-0.07c-3.37,0-6.65,0.36-9.81,1.06c-2.65-15.39-16.06-27.09-32.2-27.09c-6.72,0-12.96,2.02-18.15,5.5
			c-2.08-0.99-4.22-1.86-6.43-2.6c0.14-0.95,0.2-1.92,0.2-2.9c0-11.46-9.29-20.75-20.75-20.75c-8.91,0-16.5,5.61-19.44,13.49
			c-2.37-1.85-5.34-2.95-8.58-2.95c-7.72,0-13.98,6.26-13.98,13.98c0,4.74,2.36,8.93,5.97,11.45
			C-32.97,433.25-39.9,447.98-39.9,464.33z"/>
		<path class="st6" d="M604.07,543.76c0,32.21-25.77,58.32-57.55,58.32c-12.51,0-24.1-4.05-33.54-10.93
			c-9.44,6.88-21.03,10.93-33.55,10.93c-2.65,0-5.26-0.18-7.82-0.54c-9.97,17.33-28.51,28.98-49.74,28.98
			c-31.79,0-57.56-26.12-57.56-58.33c0-0.41,0-0.82,0.02-1.23c-8.69-1.83-16.66-5.65-23.43-10.97
			c-6.94,24.32-29.06,42.09-55.29,42.09c-21.8,0-40.77-12.28-50.54-30.38c-9.37,7.45-21.08,12.03-33.82,12.41
			c-9.28,19.58-29.03,33.1-51.91,33.1c-24.17,0-44.85-15.09-53.38-36.48c-6.07,2.21-12.61,3.41-19.43,3.41
			c-31.79,0-57.55-26.11-57.55-58.33c0-32.21,25.77-58.32,57.55-58.32c24.17,0,44.86,15.09,53.39,36.48
			c5.56-2.02,11.5-3.2,17.68-3.38c9.28-19.58,29.03-33.1,51.92-33.1c21.81,0,40.78,12.29,50.54,30.4
			c9.79-7.8,22.12-12.45,35.55-12.45c13.27,0,25.49,4.55,35.22,12.19c6.94-24.31,29.06-42.08,55.29-42.08
			c22.36,0,41.74,12.92,51.28,31.8c4.68-1.25,9.58-1.91,14.64-1.91c6.54,0,12.83,1.11,18.69,3.14c5.86-2.03,12.15-3.14,18.69-3.14
			c12.52,0,24.11,4.05,33.55,10.93c9.44-6.88,21.03-10.93,33.54-10.93C578.31,485.44,604.07,511.55,604.07,543.76z"/>
	</g>
	
		<g id="Lune_00000126284221981542368050000010700464051697815474_" style="clip-path:url(#SVGID_00000075869976883576110480000008631966767018993043_);">
		<defs>
			<circle id="Masque" cx="470.84" cy="231.12" r="121.63"/>
		</defs>
		<clipPath id="Masque_00000083779307428142916690000011436428188158194820_">
			<use xlink:href="#Masque"  style="overflow:visible;"/>
		</clipPath>
		
			<linearGradient id="SVGID_00000149380075383831858070000012603871765243765940_" gradientUnits="userSpaceOnUse" x1="348.0259" y1="234.622" x2="591.2881" y2="234.622">
			<stop  offset="0" style="stop-color:#9085BE"/>
			<stop  offset="1" style="stop-color:#7073B4"/>
		</linearGradient>
		
			<circle style="clip-path:url(#Masque_00000083779307428142916690000011436428188158194820_);fill:url(#SVGID_00000149380075383831858070000012603871765243765940_);" cx="469.66" cy="234.62" r="121.63"/>
		
			<circle style="clip-path:url(#Masque_00000083779307428142916690000011436428188158194820_);fill:#B5DFEA;" cx="478.63" cy="191.75" r="121.63"/>
		<g id="Cratères" style="clip-path:url(#Masque_00000083779307428142916690000011436428188158194820_);">
			
				<ellipse transform="matrix(0.6812 -0.7321 0.7321 0.6812 -78.3361 398.0619)" class="st10" cx="417.92" cy="288.98" rx="15.92" ry="29.24"/>
			
				<ellipse transform="matrix(0.6812 -0.7321 0.7321 0.6812 -78.7096 443.3727)" class="st10" cx="469.76" cy="312.07" rx="15.92" ry="29.24"/>
			
				<ellipse transform="matrix(0.6812 -0.7321 0.7321 0.6812 -47.2076 414.0275)" class="st10" cx="451.82" cy="261.22" rx="8.08" ry="14.85"/>
		</g>
	</g>
</g>
<g id="Ombre_00000014616800989322993830000009769659130891090353_">
	<ellipse class="st11" cx="294.82" cy="714.58" rx="239.81" ry="17.57"/>
</g>
<g id="Helmet">
	
		<linearGradient id="Tracé_casque_00000023257044203957263180000007504388771967344053_" gradientUnits="userSpaceOnUse" x1="296.0157" y1="331.011" x2="296.4953" y2="253.5059">
		<stop  offset="0.306" style="stop-color:#A4B9E1"/>
		<stop  offset="0.6204" style="stop-color:#A5BBE1"/>
		<stop  offset="0.7336" style="stop-color:#AAC0E4"/>
		<stop  offset="0.8143" style="stop-color:#B2CAE7"/>
		<stop  offset="0.8791" style="stop-color:#BED8EB"/>
		<stop  offset="0.929" style="stop-color:#CCE8EF"/>
	</linearGradient>
	<path id="Tracé_casque" style="fill:url(#Tracé_casque_00000023257044203957263180000007504388771967344053_);" d="M266.18,333.8
		l-4.21-31.41l-4.68,0.18l0.51-24.78l8.38,1.96c0,0,1.89-24.66,30.98-24.66c29.09,0,28.58,24.16,28.58,24.16l9.34-1.53v24.85
		l-4.42-0.1l-3.89,31.33H266.18z"/>
	
		<linearGradient id="Elipse_00000035532943101706324100000017890914424519093901_" gradientUnits="userSpaceOnUse" x1="296.4319" y1="353.5201" x2="296.4319" y2="310.7969">
		<stop  offset="0.4644" style="stop-color:#A4B9E1"/>
		<stop  offset="1" style="stop-color:#CCE8EF"/>
	</linearGradient>
	
		<ellipse id="Elipse" style="fill:url(#Elipse_00000035532943101706324100000017890914424519093901_);" cx="296.43" cy="332.16" rx="39.8" ry="21.36"/>
	
		<linearGradient id="Elipse_00000019674887562034825370000012381299391191771290_" gradientUnits="userSpaceOnUse" x1="296.4319" y1="369.6431" x2="296.4319" y2="322.9273">
		<stop  offset="0.6939" style="stop-color:#A4B9E1"/>
		<stop  offset="1" style="stop-color:#CCE8EF"/>
	</linearGradient>
	
		<ellipse id="Elipse_00000049218960416430070380000010758885079828171909_" style="fill:url(#Elipse_00000019674887562034825370000012381299391191771290_);" cx="296.43" cy="346.29" rx="44.02" ry="23.36"/>
	
		<linearGradient id="SVGID_00000121256395471289737660000014710113140253121939_" gradientUnits="userSpaceOnUse" x1="257.4881" y1="301.469" x2="257.6376" y2="277.2962">
		<stop  offset="0.306" style="stop-color:#A4B9E1"/>
		<stop  offset="0.6204" style="stop-color:#A5BBE1"/>
		<stop  offset="0.7336" style="stop-color:#AAC0E4"/>
		<stop  offset="0.8143" style="stop-color:#B2CAE7"/>
		<stop  offset="0.8791" style="stop-color:#BED8EB"/>
		<stop  offset="0.929" style="stop-color:#CCE8EF"/>
	</linearGradient>
	
		<ellipse style="fill:url(#SVGID_00000121256395471289737660000014710113140253121939_);" cx="257.56" cy="290.09" rx="3.43" ry="12.3"/>
	
		<linearGradient id="SVGID_00000009561351685980135270000016427693948128552877_" gradientUnits="userSpaceOnUse" x1="335.0193" y1="301.469" x2="335.1689" y2="277.2962">
		<stop  offset="0.306" style="stop-color:#A4B9E1"/>
		<stop  offset="0.6204" style="stop-color:#A5BBE1"/>
		<stop  offset="0.7336" style="stop-color:#AAC0E4"/>
		<stop  offset="0.8143" style="stop-color:#B2CAE7"/>
		<stop  offset="0.8791" style="stop-color:#BED8EB"/>
		<stop  offset="0.929" style="stop-color:#CCE8EF"/>
	</linearGradient>
	
		<ellipse style="fill:url(#SVGID_00000009561351685980135270000016427693948128552877_);" cx="335.09" cy="290.09" rx="3.43" ry="12.3"/>
	
		<linearGradient id="SVGID_00000018223144693751747400000014174810458202917261_" gradientUnits="userSpaceOnUse" x1="257.2937" y1="289.9154" x2="257.2937" y2="302.5733">
		<stop  offset="0" style="stop-color:#ABD6EC;stop-opacity:0.1"/>
		<stop  offset="0.7858" style="stop-color:#8799B7"/>
	</linearGradient>
	<path style="fill:url(#SVGID_00000018223144693751747400000014174810458202917261_);" d="M253.87,289.92
		c0,6.99,1.53,12.66,3.43,12.66s3.43-5.67,3.43-12.66"/>
	
		<linearGradient id="SVGID_00000024000585442741788640000005182013287552421020_" gradientUnits="userSpaceOnUse" x1="335.0898" y1="289.9154" x2="335.0898" y2="302.5733">
		<stop  offset="0" style="stop-color:#ABD6EC;stop-opacity:0.1"/>
		<stop  offset="0.7858" style="stop-color:#8799B7"/>
	</linearGradient>
	<path style="fill:url(#SVGID_00000024000585442741788640000005182013287552421020_);" d="M331.66,289.92
		c0,6.99,1.53,12.66,3.43,12.66s3.43-5.67,3.43-12.66"/>
	
		<linearGradient id="SVGID_00000063616027862470742770000016737481998395731328_" gradientUnits="userSpaceOnUse" x1="277.357" y1="255.4614" x2="290.8448" y2="255.4614">
		<stop  offset="0" style="stop-color:#CCE7EF"/>
		<stop  offset="1" style="stop-color:#CBE6EE"/>
	</linearGradient>
	<circle style="fill:url(#SVGID_00000063616027862470742770000016737481998395731328_);" cx="284.1" cy="255.46" r="6.74"/>
	
		<linearGradient id="SVGID_00000085209020491541629830000016460733615793243796_" gradientUnits="userSpaceOnUse" x1="302.1231" y1="255.4614" x2="315.611" y2="255.4614">
		<stop  offset="0" style="stop-color:#CCE7EF"/>
		<stop  offset="1" style="stop-color:#CBE6EE"/>
	</linearGradient>
	<circle style="fill:url(#SVGID_00000085209020491541629830000016460733615793243796_);" cx="308.87" cy="255.46" r="6.74"/>
	<g id="Visière_00000079449072465292888290000012112124241502609577_">
		<defs>
			<ellipse id="SVGID_00000029026069338573004210000004109883454999734714_" cx="296.48" cy="290.46" rx="30.3" ry="15.31"/>
		</defs>
		<clipPath id="SVGID_00000129183666931246312970000002812587224998576046_">
			<use xlink:href="#SVGID_00000029026069338573004210000004109883454999734714_"  style="overflow:visible;"/>
		</clipPath>
		
			<radialGradient id="SVGID_00000114073002009410717530000014652141860986679208_" cx="295.4481" cy="290.1456" r="24.0058" gradientUnits="userSpaceOnUse">
			<stop  offset="0" style="stop-color:#41348A;stop-opacity:0.9"/>
			<stop  offset="0.1893" style="stop-color:#44358B;stop-opacity:0.9"/>
			<stop  offset="0.4024" style="stop-color:#50378C;stop-opacity:0.9"/>
			<stop  offset="0.627" style="stop-color:#623C8F;stop-opacity:0.9"/>
			<stop  offset="0.858" style="stop-color:#7B4393;stop-opacity:0.9"/>
			<stop  offset="1" style="stop-color:#8E4A97;stop-opacity:0.9"/>
		</radialGradient>
		
			<ellipse style="clip-path:url(#SVGID_00000129183666931246312970000002812587224998576046_);fill:url(#SVGID_00000114073002009410717530000014652141860986679208_);" cx="295.45" cy="290.15" rx="30.3" ry="15.31"/>
		
			<linearGradient id="SVGID_00000072974590380746057020000010747361551461166245_" gradientUnits="userSpaceOnUse" x1="295.9617" y1="278.4751" x2="295.9617" y2="306.9539">
			<stop  offset="0" style="stop-color:#2581C4;stop-opacity:0.9"/>
			<stop  offset="0.7405" style="stop-color:#2581C4;stop-opacity:0"/>
		</linearGradient>
		
			<ellipse style="clip-path:url(#SVGID_00000129183666931246312970000002812587224998576046_);fill:url(#SVGID_00000072974590380746057020000010747361551461166245_);" cx="295.96" cy="292.71" rx="28.18" ry="14.24"/>
	</g>
	<g id="Head_piece">
		
			<linearGradient id="SVGID_00000136380049070006911250000012798732756154919606_" gradientUnits="userSpaceOnUse" x1="298.6983" y1="250.3607" x2="298.6983" y2="260.5622">
			<stop  offset="0" style="stop-color:#CCE7EF"/>
			<stop  offset="1" style="stop-color:#CBE6EE"/>
		</linearGradient>
		<path style="fill:url(#SVGID_00000136380049070006911250000012798732756154919606_);" d="M309.39,250.36h-21.37
			c-1.66,0-3,1.34-3,3v4.2c0,1.66,1.34,3,3,3h21.37c1.66,0,3-1.34,3-3v-4.2C312.39,251.7,311.04,250.36,309.39,250.36z"/>
		
			<radialGradient id="SVGID_00000100374201688736757110000004211521558394754719_" cx="308.8671" cy="255.4614" r="5.1691" gradientUnits="userSpaceOnUse">
			<stop  offset="0" style="stop-color:#FFEF26"/>
			<stop  offset="0.0894" style="stop-color:#FFE000"/>
			<stop  offset="0.1957" style="stop-color:#FFD300"/>
			<stop  offset="0.3053" style="stop-color:#FECB00"/>
			<stop  offset="0.422" style="stop-color:#FDC800"/>
			<stop  offset="0.7705" style="stop-color:#F18F34"/>
			<stop  offset="1" style="stop-color:#E95F32"/>
		</radialGradient>
		<circle style="fill:url(#SVGID_00000100374201688736757110000004211521558394754719_);" cx="308.87" cy="255.46" r="5.17"/>
		
			<radialGradient id="SVGID_00000181066588126650624680000009659919383901931405_" cx="284.1009" cy="255.4614" r="5.1691" gradientUnits="userSpaceOnUse">
			<stop  offset="0" style="stop-color:#FFEF26"/>
			<stop  offset="0.0894" style="stop-color:#FFE000"/>
			<stop  offset="0.1957" style="stop-color:#FFD300"/>
			<stop  offset="0.3053" style="stop-color:#FECB00"/>
			<stop  offset="0.422" style="stop-color:#FDC800"/>
			<stop  offset="0.7705" style="stop-color:#F18F34"/>
			<stop  offset="1" style="stop-color:#E95F32"/>
		</radialGradient>
		<circle style="fill:url(#SVGID_00000181066588126650624680000009659919383901931405_);" cx="284.1" cy="255.46" r="5.17"/>
		
			<linearGradient id="Ombre_00000127766446084786917770000008859997100775698319_" gradientUnits="userSpaceOnUse" x1="296.484" y1="265.559" x2="296.484" y2="249.8521">
			<stop  offset="0" style="stop-color:#2581C4;stop-opacity:0.8"/>
			<stop  offset="1" style="stop-color:#2581C4;stop-opacity:0"/>
		</linearGradient>
		
			<path id="Ombre_00000125568643082153993070000009909771532045605548_" style="opacity:0.3;fill:url(#Ombre_00000127766446084786917770000008859997100775698319_);" d="
			M301.11,249.85h-9.25c-1.27,0-2.3,1.03-2.3,2.3v13.41h13.85v-13.41C303.41,250.88,302.38,249.85,301.11,249.85z"/>
		
			<linearGradient id="SVGID_00000030471580604303849240000003688445895710036121_" gradientUnits="userSpaceOnUse" x1="296.484" y1="262.0933" x2="296.484" y2="246.959">
			<stop  offset="0" style="stop-color:#E72687"/>
			<stop  offset="0.1288" style="stop-color:#E73789"/>
			<stop  offset="0.3981" style="stop-color:#E74F8D"/>
			<stop  offset="0.6816" style="stop-color:#E75B8F"/>
			<stop  offset="1" style="stop-color:#E75F90"/>
		</linearGradient>
		<polygon style="fill:url(#SVGID_00000030471580604303849240000003688445895710036121_);" points="303.41,246.96 289.56,246.96 
			289.56,246.96 289.56,262.09 303.41,262.09 		"/>
	</g>
</g>
<g id="Suit">
	<g id="Belt_chain">
		<path class="st28" d="M263.22,472.24c-5.67-3.69-20.76,9.46-33.7,29.36s-18.84,39.02-13.17,42.71s20.76-9.46,33.7-29.36
			S268.89,475.93,263.22,472.24z M244.78,511.83c-9.66,14.86-19.79,25.4-22.63,23.56s2.7-15.38,12.36-30.24
			c9.66-14.86,19.79-25.4,22.63-23.56C259.97,483.43,254.44,496.97,244.78,511.83z"/>
		<path class="st28" d="M370.37,523.11c-12.33-20.29-27.01-33.89-32.79-30.38s-0.47,22.8,11.86,43.09
			c12.33,20.29,27.01,33.89,32.79,30.38S382.7,543.39,370.37,523.11z M376.7,557.1c-2.89,1.76-12.69-9.1-21.89-24.24
			c-9.2-15.14-14.32-28.84-11.43-30.6s12.69,9.1,21.89,24.24C374.47,541.64,379.59,555.34,376.7,557.1z"/>
	</g>
	
		<linearGradient id="SVGID_00000128465785856400594080000011865148825871172486_" gradientUnits="userSpaceOnUse" x1="230.5438" y1="657.1648" x2="230.5438" y2="329.7812">
		<stop  offset="0.1173" style="stop-color:#CD3D8E"/>
		<stop  offset="0.9134" style="stop-color:#F3A656"/>
	</linearGradient>
	<path style="fill:url(#SVGID_00000128465785856400594080000011865148825871172486_);" d="M268.23,331.38
		c0.2,0.03,2.08,0.22,2.28,0.23l18.97,1.49c3.64,0.32,4.23,1.73,4.6,4.31c0.11,0.78,0.23,1.99,0.25,2.52
		c0.05,1.07,0.19,2.13,0.49,3.16l0.16,0.53c1.35,4.59,2.03,9.35,2.02,14.13l-0.5,154.17c-5.63,1.56-23.78-3.39-23.78-3.39
		L233.7,657.16l-18.99-4.15l8.8-55.64c-5.61-5.29-10.65-13.75-11.77-18.93s15.72-7.68,15.72-7.68l11.74-82.98
		c-5.58-6.97-7.36-11.66-8.66-16.78c-0.65-2.55-0.87-6.21-0.9-8.84c-0.09-9.82,0.66-38.39,9.99-84.48
		c-11.56-2.13-54.7,13.67-54.69,19.88S198,420.86,198,420.86s-8.28,11.67-12.58,9.11c-4.3-2.56-23.56-34.05-21.11-42.46
		c2.45-8.41,33.02-23.92,33.02-23.92s45.51-22.78,54.47-23.2c-1.05-4.22-0.69-6.92-0.22-8.44c0.16-0.53,0.32-1.1,0.64-1.46
		c0.12-0.13,0.33-0.27,0.61-0.39c0.88-0.38,2.77-0.35,3.72-0.23L268.23,331.38z"/>
	
		<linearGradient id="SVGID_00000139283010188759011110000004840720760493379004_" gradientUnits="userSpaceOnUse" x1="97.446" y1="657.1642" x2="97.446" y2="329.7807" gradientTransform="matrix(-1 0 0 1 461.0875 0)">
		<stop  offset="0.1173" style="stop-color:#CD3D8E"/>
		<stop  offset="0.9134" style="stop-color:#F3A656"/>
	</linearGradient>
	<path style="fill:url(#SVGID_00000139283010188759011110000004840720760493379004_);" d="M325.96,331.38
		c-0.2,0.03-2.08,0.22-2.28,0.23l-18.97,1.49c-3.64,0.32-4.23,1.73-4.6,4.31c-0.11,0.78-0.23,1.99-0.25,2.52
		c-0.05,1.07-0.19,2.13-0.49,3.16l-0.16,0.53c-1.35,4.59-2.03,9.35-2.02,14.13l0.5,154.17c5.63,1.56,23.78-3.39,23.78-3.39
		l39.01,148.62l18.99-4.15l-8.8-55.64c5.61-5.29,10.65-13.75,11.77-18.93c1.12-5.19-15.72-7.68-15.72-7.68l-11.74-82.98
		c5.81-5.39,7.49-10.78,8.66-16.78c0.51-2.58,0.87-6.21,0.9-8.84c0.09-9.82-0.66-38.39-9.99-84.48
		c11.56-2.13,54.7,13.67,54.69,19.88c0,6.21-13.05,23.31-13.05,23.31s8.28,11.67,12.58,9.11c4.3-2.56,23.56-34.05,21.11-42.46
		c-2.45-8.41-33.02-23.92-33.02-23.92s-45.51-22.78-54.47-23.2c1.05-4.22,0.69-6.92,0.22-8.44c-0.16-0.53-0.32-1.1-0.64-1.46
		c-0.12-0.13-0.33-0.27-0.61-0.39c-0.88-0.38-2.77-0.35-3.72-0.23L325.96,331.38z"/>
</g>
<g id="Stuff">
	
		<radialGradient id="Shorts_00000134209746407301597980000010381948173040013447_" cx="297.0727" cy="498.3835" r="80.2941" gradientTransform="matrix(-1 4.985970e-03 -1.349532e-03 -0.2707 594.8143 631.796)" gradientUnits="userSpaceOnUse">
		<stop  offset="0" style="stop-color:#41348A"/>
		<stop  offset="0.9868" style="stop-color:#8E4A97"/>
	</radialGradient>
	<path id="Shorts" style="fill:url(#Shorts_00000134209746407301597980000010381948173040013447_);" d="M229.75,465.99
		c0,0,27.72,24.23,67.32,24.23s67.32-24.23,67.32-24.23c0.18,0.14,0.07,14.1-9.46,21.79c3.48,24.17,3.93,26.79,3.85,26.81
		c0.72,0.66-11.33,11.75-31.52,16.17l-5.83-22.22c0.17,0.46-29.45,8.72-48.71,0l-5.96,22.22c-0.49,0.28-16.88-3.63-31.32-16.28
		l3.78-26.7C239.34,488.56,229.19,477.71,229.75,465.99z"/>
	<g id="Details">
		
			<linearGradient id="SVGID_00000146484420618757656090000010334765857379598211_" gradientUnits="userSpaceOnUse" x1="226.5916" y1="597.372" x2="226.5916" y2="580.5682">
			<stop  offset="0" style="stop-color:#41348A"/>
			<stop  offset="0.9868" style="stop-color:#8E4A97"/>
		</linearGradient>
		<path style="fill:url(#SVGID_00000146484420618757656090000010334765857379598211_);" d="M212.36,580.57
			c0,0,13.94,8.88,28.46,2.04c-5.39,11.65-17.3,14.76-17.3,14.76S216.07,591.83,212.36,580.57z"/>
		
			<linearGradient id="SVGID_00000112607967759712947040000008305064672352835756_" gradientUnits="userSpaceOnUse" x1="382.5662" y1="597.3505" x2="382.5662" y2="580.9302" gradientTransform="matrix(-1 0 0 1 750.0873 0)">
			<stop  offset="0" style="stop-color:#41348A"/>
			<stop  offset="0.9868" style="stop-color:#8E4A97"/>
		</linearGradient>
		<path style="fill:url(#SVGID_00000112607967759712947040000008305064672352835756_);" d="M381.69,580.93c0,0-13.82,8.5-28.35,1.66
			c5.39,11.65,17.3,14.76,17.3,14.76S377.99,592.19,381.69,580.93z"/>
		
			<linearGradient id="SVGID_00000046310587957324636620000014902631228024056980_" gradientUnits="userSpaceOnUse" x1="185.0685" y1="383.7361" x2="242.3196" y2="383.7361">
			<stop  offset="0.1497" style="stop-color:#DF5180"/>
			<stop  offset="0.293" style="stop-color:#DB4D84"/>
			<stop  offset="0.5571" style="stop-color:#D1418C"/>
			<stop  offset="0.6406" style="stop-color:#CD3D8E"/>
		</linearGradient>
		<path style="fill:url(#SVGID_00000046310587957324636620000014902631228024056980_);" d="M241.08,370.61
			c0,0-52.07,14.49-55.98,19.4c-1.85,2.34-1.52,4.46,0.01,6.84c1.17-4.87,34.41-19.01,54.59-19.21L241.08,370.61z"/>
		
			<linearGradient id="SVGID_00000145738864406948107170000011727271617074839432_" gradientUnits="userSpaceOnUse" x1="263.7412" y1="384.8583" x2="320.9099" y2="384.8583" gradientTransform="matrix(-1 0 0 1 673.1204 0)">
			<stop  offset="0.1497" style="stop-color:#DF5180"/>
			<stop  offset="0.293" style="stop-color:#DB4D84"/>
			<stop  offset="0.5571" style="stop-color:#D1418C"/>
			<stop  offset="0.6406" style="stop-color:#CD3D8E"/>
		</linearGradient>
		<path style="fill:url(#SVGID_00000145738864406948107170000011727271617074839432_);" d="M353.45,372.17
			c0,0,52.07,14.49,55.98,19.4c1.85,2.34,1.33,3.6-0.19,5.98c-1.17-4.87-34.22-18.14-54.41-18.34L353.45,372.17z"/>
		
			<linearGradient id="SVGID_00000062190537564241005580000005290562242724764085_" gradientUnits="userSpaceOnUse" x1="402.4993" y1="409.1727" x2="430.5912" y2="409.1727">
			<stop  offset="0.1497" style="stop-color:#DF5180"/>
			<stop  offset="0.293" style="stop-color:#DB4D84"/>
			<stop  offset="0.5571" style="stop-color:#D1418C"/>
			<stop  offset="0.6406" style="stop-color:#CD3D8E"/>
		</linearGradient>
		<path style="fill:url(#SVGID_00000062190537564241005580000005290562242724764085_);" d="M401.89,427.22
			c0,0,15.15-4.44,27.99-39.71c1.82,13.79-20.74,42.6-20.74,42.6S407.67,433.02,401.89,427.22z"/>
		
			<linearGradient id="SVGID_00000023261452600018345100000008753571749404234408_" gradientUnits="userSpaceOnUse" x1="248.8043" y1="342.4369" x2="286.1049" y2="342.4369">
			<stop  offset="0.1497" style="stop-color:#EB6572"/>
			<stop  offset="0.3003" style="stop-color:#ED7170"/>
			<stop  offset="0.5777" style="stop-color:#F18E68"/>
			<stop  offset="0.6406" style="stop-color:#F29564"/>
		</linearGradient>
		<path style="fill:url(#SVGID_00000023261452600018345100000008753571749404234408_);" d="M251.3,337.77c0,0,14.85,9.09,34.81,8
			c-12.06,3.33-34.71-0.13-37.3-4.91c1.79-1.02,3-0.48,3-0.48S250.99,338.91,251.3,337.77z"/>
		
			<linearGradient id="SVGID_00000026865897636445763580000006356785050388258486_" gradientUnits="userSpaceOnUse" x1="185.6981" y1="342.446" x2="222.8149" y2="342.446" gradientTransform="matrix(-1 0 0 1 531.1461 0)">
			<stop  offset="0.1497" style="stop-color:#EB6572"/>
			<stop  offset="0.3003" style="stop-color:#ED7170"/>
			<stop  offset="0.5777" style="stop-color:#F18E68"/>
			<stop  offset="0.6406" style="stop-color:#F29564"/>
		</linearGradient>
		<path style="fill:url(#SVGID_00000026865897636445763580000006356785050388258486_);" d="M342.86,337.77c0,0-14.57,9.09-34.53,8
			c12.06,3.33,34.52-0.03,37.12-4.81c-1.79-1.02-3.03-0.58-3.03-0.58S343.17,338.91,342.86,337.77z"/>
	</g>
	<g id="Zipper">
		
			<linearGradient id="SVGID_00000075128005228541655240000003996270377456176802_" gradientUnits="userSpaceOnUse" x1="296.9771" y1="489.043" x2="296.9771" y2="346.8394">
			<stop  offset="0" style="stop-color:#41348A"/>
			<stop  offset="0.5053" style="stop-color:#8E4A97"/>
		</linearGradient>
		<path style="fill:url(#SVGID_00000075128005228541655240000003996270377456176802_);" d="M300.37,350.23v135.42
			c0,1.86-1.53,3.39-3.39,3.39l0,0c-1.86,0-3.39-1.53-3.39-3.39V350.23c0-1.86,1.53-3.39,3.39-3.39l0,0
			C298.84,346.84,300.37,348.37,300.37,350.23z"/>
		
			<linearGradient id="SVGID_00000183234176150630766550000014046328372328512421_" gradientUnits="userSpaceOnUse" x1="300.3069" y1="485.3536" x2="300.3069" y2="343.1501">
			<stop  offset="0" style="stop-color:#CF3F8E"/>
			<stop  offset="0.5053" style="stop-color:#EE7275"/>
		</linearGradient>
		<path style="fill:url(#SVGID_00000183234176150630766550000014046328372328512421_);" d="M302,485.35L302,485.35
			c-1.86,0-3.39-1.65-3.39-3.66V346.81c0-2.01,1.53-3.66,3.39-3.66l0,0"/>
		
			<linearGradient id="SVGID_00000156547612831861279610000011019084045798623396_" gradientUnits="userSpaceOnUse" x1="-9.6213" y1="485.3015" x2="-9.6213" y2="343.0979" gradientTransform="matrix(-1 0 0 1 284.05 0)">
			<stop  offset="0" style="stop-color:#CF3F8E"/>
			<stop  offset="0.5053" style="stop-color:#EE7275"/>
		</linearGradient>
		<path style="fill:url(#SVGID_00000156547612831861279610000011019084045798623396_);" d="M291.98,485.3L291.98,485.3
			c1.86,0,3.39-1.65,3.39-3.66V346.76c0-2.01-1.53-3.66-3.39-3.66h0"/>
		
			<linearGradient id="SVGID_00000149366438463615408780000006350629426281556407_" gradientUnits="userSpaceOnUse" x1="296.9771" y1="490.0385" x2="296.9771" y2="482.7521">
			<stop  offset="0" style="stop-color:#CF3F8E"/>
			<stop  offset="1" style="stop-color:#CF3F8E"/>
		</linearGradient>
		
			<path style="fill:none;stroke:url(#SVGID_00000149366438463615408780000006350629426281556407_);stroke-width:2;stroke-miterlimit:10;" d="
			M292.96,482.75v1.77c0,2.49,1.81,4.52,4.02,4.52h0c2.21,0,4.02-2.03,4.02-4.52v-1.77"/>
	</g>
	<path class="st43" d="M300.73,351.62c-0.48,0.48-1.06,0.84-1.7,1.07l0,0c0,0-0.01,0-0.01,0c-1.01,0.16-1.52-0.52-1.78-1.53
		l-0.43-1.65l-0.46-1.78c-0.31-1.18,0.2-1.5,1.12-0.7l1.39,1.2l1.29,1.11c0.79,0.68,1.11,1.44,0.6,2.27
		C300.73,351.61,300.73,351.61,300.73,351.62L300.73,351.62z"/>
	<path class="st43" d="M360.47,341.84c0,0-4.48,2.95-5.46,9.91c-0.05,0.39,0.12,0.79,0.44,1.01c8.46,6.01,17.52,5.81,20.27,5.59
		c0.6-0.05,1.18-0.18,1.74-0.41c0.94-0.39,2.29-1.14,2.44-2.21c0.24-1.66,0.8-3.25-4.14-7
		C370.82,344.97,361.47,341.15,360.47,341.84z"/>
	<path class="st43" d="M236.73,341.84c0,0,4.48,2.95,5.46,9.91c0.05,0.39-0.12,0.79-0.44,1.01c-8.46,6.01-17.52,5.81-20.27,5.59
		c-0.6-0.05-1.18-0.18-1.74-0.41c-0.94-0.39-2.29-1.14-2.44-2.21c-0.24-1.66-0.8-3.25,4.14-7
		C226.38,344.97,235.73,341.15,236.73,341.84z"/>
	<g>
		<g>
			
				<linearGradient id="SVGID_00000143611263413424717020000001194988985695179157_" gradientUnits="userSpaceOnUse" x1="325.2216" y1="385.0579" x2="325.2216" y2="361.9873">
				<stop  offset="0.2493" style="stop-color:#9D539B"/>
				<stop  offset="0.8668" style="stop-color:#41348A"/>
			</linearGradient>
			<path style="fill:url(#SVGID_00000143611263413424717020000001194988985695179157_);" d="M333.01,363.17L333.01,363.17
				c2.08,1.07,3.44,2.6,2.38,4.68l-3.89,7.64l-3.89,7.64c-1.31,2.58-3.46,2.58-4.77,0l-3.89-7.64l-3.89-7.64
				c-1.06-2.08,0.2-3.46,2.38-4.68h0C321.73,361.59,328.73,361.59,333.01,363.17z"/>
		</g>
		
			<radialGradient id="SVGID_00000108301586461195494550000010388744648571277722_" cx="325.2216" cy="388.2973" r="7.6886" gradientUnits="userSpaceOnUse">
			<stop  offset="0" style="stop-color:#FFEF26"/>
			<stop  offset="0.0595" style="stop-color:#FFE000"/>
			<stop  offset="0.1303" style="stop-color:#FFD300"/>
			<stop  offset="0.2032" style="stop-color:#FECB00"/>
			<stop  offset="0.2809" style="stop-color:#FDC800"/>
			<stop  offset="0.824" style="stop-color:#F18F34"/>
			<stop  offset="1" style="stop-color:#E95F32"/>
		</radialGradient>
		
			<linearGradient id="SVGID_00000042008854942935714280000011818637747189169087_" gradientUnits="userSpaceOnUse" x1="317.408" y1="388.2973" x2="333.0351" y2="388.2973">
			<stop  offset="0.0835" style="stop-color:#9D539B"/>
			<stop  offset="0.4382" style="stop-color:#41348A"/>
		</linearGradient>
		
			<circle style="fill:url(#SVGID_00000108301586461195494550000010388744648571277722_);stroke:url(#SVGID_00000042008854942935714280000011818637747189169087_);stroke-width:0.25;stroke-linecap:round;stroke-miterlimit:10;" cx="325.22" cy="388.3" r="7.69"/>
	</g>
	
		<linearGradient id="SVGID_00000032635013051177109680000012803561179536017068_" gradientUnits="userSpaceOnUse" x1="237.8369" y1="443.8122" x2="261.3361" y2="443.8122">
		<stop  offset="0.4134" style="stop-color:#41348A"/>
		<stop  offset="0.551" style="stop-color:#43348B"/>
		<stop  offset="0.6569" style="stop-color:#4B368C"/>
		<stop  offset="0.7522" style="stop-color:#593A8E"/>
		<stop  offset="0.8412" style="stop-color:#6C3F91"/>
		<stop  offset="0.9252" style="stop-color:#834896"/>
		<stop  offset="1" style="stop-color:#9D539B"/>
	</linearGradient>
	
		<path style="fill:none;stroke:url(#SVGID_00000032635013051177109680000012803561179536017068_);stroke-width:3;stroke-linecap:round;stroke-miterlimit:10;" d="
		M259.4,419.38c0,0,5.19,38.87-20.06,48.86"/>
	
		<linearGradient id="SVGID_00000062896203683962186230000003127847225457927613_" gradientUnits="userSpaceOnUse" x1="325.8391" y1="446.0007" x2="350.8211" y2="446.0007">
		<stop  offset="0.0835" style="stop-color:#9D539B"/>
		<stop  offset="0.4382" style="stop-color:#41348A"/>
	</linearGradient>
	
		<path style="fill:none;stroke:url(#SVGID_00000062896203683962186230000003127847225457927613_);stroke-width:3;stroke-linecap:round;stroke-miterlimit:10;" d="
		M327.94,421.33c0,0-6.22,41.48,21.38,49.34"/>
	<g>
		<path class="st48" d="M248.11,374.78c-0.09,0.53-2.83,12.33,0.51,15.43c3.53,3.27,35.79-1.5,35.79-1.5s3.1-7.56,0.9-16.46
			C283.12,363.35,248.11,374.78,248.11,374.78z"/>
		<path class="st49" d="M285.9,383.1c0,0-38.85,2.29-38.86,2.37c-0.17,5.11,4.12,9.38,9.24,9.38h6.13c3.17,0,9.21-0.37,12.37-0.61
			c4.67-0.36,7.39-0.87,8.75-3.29C284.19,389.74,285.78,384.62,285.9,383.1z"/>
		<path class="st49" d="M247.76,376.04c0,0,20.25-4,38.12-0.12c0-0.08,0.01-0.16,0.01-0.24c0.17-5.11-4.03-9.31-9.15-9.31h-6.13
			c-3.17,0-9.21,0.37-12.37,0.61c-4.67,0.36-7.39,0.87-8.75,3.29C248.83,371.47,247.76,376.04,247.76,376.04z"/>
	</g>
</g>
<g id="Boots">
	<path class="st50" d="M130.37,723.32l83.38-0.09c0.71,0,1.34-0.43,1.61-1.08l3.84-9.34H128.9c-1,0-1.82,0.81-1.82,1.82v5.41
		C127.09,721.85,128.55,723.32,130.37,723.32z"/>
	
		<linearGradient id="SVGID_00000128475815065711315440000002118863913005382821_" gradientUnits="userSpaceOnUse" x1="182.219" y1="712.8139" x2="182.219" y2="646.4229">
		<stop  offset="0" style="stop-color:#41348A"/>
		<stop  offset="1" style="stop-color:#8E4A97"/>
	</linearGradient>
	<path style="fill:url(#SVGID_00000128475815065711315440000002118863913005382821_);" d="M207.2,647.08c0,0,17.21-3.31,29.27,4.95
		c-6.92,28.06-9.1,37.08-13.08,48.76c-2.31,6.79-4.2,12.03-4.2,12.03c-1.99,0-91.23,0-91.23,0l0,0c0.72-6.69,3.98-15.21,14.55-21.21
		c6.27-3.56,13.47-5.13,20.68-4.92c26.17,0.77,40.97,13.17,43.02,16.97L207.2,647.08z"/>
	<path class="st50" d="M462.03,719.15l-83.38-0.09c-0.71,0-1.34-0.43-1.61-1.08l-3.84-9.34h90.29c1,0,1.82,0.81,1.82,1.82v5.41
		C465.31,717.68,463.84,719.15,462.03,719.15z"/>
	
		<linearGradient id="SVGID_00000156568065696238950060000018196212134887788724_" gradientUnits="userSpaceOnUse" x1="-46.6205" y1="708.6404" x2="-46.6205" y2="642.2495" gradientTransform="matrix(-1 0 0 1 363.5583 0)">
		<stop  offset="0" style="stop-color:#41348A"/>
		<stop  offset="1" style="stop-color:#8E4A97"/>
	</linearGradient>
	<path style="fill:url(#SVGID_00000156568065696238950060000018196212134887788724_);" d="M385.2,642.9c0,0-17.21-3.31-29.27,4.95
		c6.92,28.06,9.1,37.08,13.08,48.76c2.31,6.79,4.2,12.03,4.2,12.03c1.99,0,91.23,0,91.23,0l0,0c-0.72-6.69-3.98-15.21-14.55-21.21
		c-6.27-3.56-13.47-5.13-20.68-4.92c-26.17,0.77-40.97,13.17-43.02,16.97L385.2,642.9z"/>
	<g id="Calque_10">
		
			<linearGradient id="SVGID_00000045594053801427723730000009308844337768167078_" gradientUnits="userSpaceOnUse" x1="203.5114" y1="660.9348" x2="229.6012" y2="660.9348">
			<stop  offset="0" style="stop-color:#B2BFE3"/>
			<stop  offset="1" style="stop-color:#CEE7F9"/>
		</linearGradient>
		<path style="fill:url(#SVGID_00000045594053801427723730000009308844337768167078_);" d="M206.75,657.14c0,0,12.92-4,20.31,0.24
			c1.72,0.99,2.56,2.04,2.54,3.48c-0.01,1.07-0.85,3.11-1.36,3.68c-1.71,1.91-5.14,2.15-6.88,1.76c-4.79-1.07-7.14-1.32-10.26-0.61
			c-2.89,0.66-4.68,0.77-5.93-0.44c-1.82-1.78-1.76-3.08-1.58-4.52c0.13-1.11,0.88-2.29,2.12-3.07
			C206.09,657.41,206.75,657.14,206.75,657.14z"/>
		
			<linearGradient id="SVGID_00000097476912150719590080000016363929694379408275_" gradientUnits="userSpaceOnUse" x1="204.4418" y1="676.3452" x2="223.841" y2="676.3452">
			<stop  offset="0" style="stop-color:#B2BFE3"/>
			<stop  offset="1" style="stop-color:#CEE7F9"/>
		</linearGradient>
		<path style="fill:url(#SVGID_00000097476912150719590080000016363929694379408275_);" d="M206.85,673.34c0,0,9.61-3.16,15.1,0.19
			c1.28,0.78,1.9,1.61,1.89,2.75c-0.01,0.85-0.63,2.46-1.01,2.9c-1.27,1.51-3.82,1.7-5.12,1.39c-3.56-0.84-5.31-1.04-7.63-0.48
			c-2.15,0.52-3.48,0.61-4.41-0.35c-1.36-1.41-1.31-2.43-1.18-3.57c0.1-0.88,0.66-1.81,1.58-2.43
			C206.36,673.56,206.85,673.34,206.85,673.34z"/>
		
			<linearGradient id="SVGID_00000061461171073630804230000007474163729706068385_" gradientUnits="userSpaceOnUse" x1="-25.3281" y1="656.7613" x2="0.7617" y2="656.7613" gradientTransform="matrix(-1 0 0 1 363.5583 0)">
			<stop  offset="0" style="stop-color:#B2BFE3"/>
			<stop  offset="1" style="stop-color:#CEE7F9"/>
		</linearGradient>
		<path style="fill:url(#SVGID_00000061461171073630804230000007474163729706068385_);" d="M385.65,652.96c0,0-12.92-4-20.31,0.24
			c-1.72,0.99-2.56,2.04-2.54,3.48c0.01,1.07,0.85,3.11,1.36,3.68c1.71,1.9,5.14,2.15,6.88,1.76c4.79-1.07,7.14-1.32,10.26-0.61
			c2.89,0.66,4.68,0.77,5.93-0.44c1.82-1.78,1.76-3.08,1.58-4.52c-0.13-1.11-0.88-2.29-2.12-3.07
			C386.3,653.23,385.65,652.96,385.65,652.96z"/>
		
			<linearGradient id="SVGID_00000086660283541703250490000001998140543560215454_" gradientUnits="userSpaceOnUse" x1="-24.3977" y1="672.1718" x2="-4.9985" y2="672.1718" gradientTransform="matrix(-1 0 0 1 363.5583 0)">
			<stop  offset="0" style="stop-color:#B2BFE3"/>
			<stop  offset="1" style="stop-color:#CEE7F9"/>
		</linearGradient>
		<path style="fill:url(#SVGID_00000086660283541703250490000001998140543560215454_);" d="M385.55,669.17c0,0-9.61-3.16-15.1,0.19
			c-1.28,0.78-1.9,1.61-1.89,2.75c0.01,0.85,0.63,2.46,1.01,2.9c1.27,1.51,3.82,1.7,5.12,1.39c3.56-0.84,5.31-1.04,7.63-0.48
			c2.15,0.52,3.48,0.61,4.41-0.35c1.36-1.41,1.31-2.43,1.18-3.57c-0.1-0.88-0.66-1.81-1.58-2.43
			C386.04,669.39,385.55,669.17,385.55,669.17z"/>
	</g>
</g>
<g id="Gloves">
	
		<linearGradient id="SVGID_00000114057375305171470940000010713839843006101695_" gradientUnits="userSpaceOnUse" x1="225.0768" y1="462.906" x2="194.2212" y2="409.4624">
		<stop  offset="0" style="stop-color:#41348A"/>
		<stop  offset="1" style="stop-color:#8E4A97"/>
	</linearGradient>
	<path style="fill:url(#SVGID_00000114057375305171470940000010713839843006101695_);" d="M232.76,422.96c0,0-2.59,19.09-2.97,37.23
		c-8.33,0-9.56-0.73-12.99-5.24c-1.04-1.37-0.93-1.49-4.5-3.01c-6.6-2.82-0.39-0.17-16.04-6.53c-9.96-4.05-20.03-8.35-20.02-16.18
		c0.01-4.94,8.41-19.73,26.63-20.89c7.47-0.17,5.75,3.76,4.3,6.97c-1.76,3.87-0.65,8.39,5.52,10.71c5.13,1.93,8.73-0.12,11.8-1.31
		C229.27,422.85,232.76,422.96,232.76,422.96z"/>
	
		<linearGradient id="SVGID_00000103985026562763536750000007114039455648335551_" gradientUnits="userSpaceOnUse" x1="211.369" y1="471.2729" x2="206.2278" y2="459.7947" gradientTransform="matrix(0.4625 -0.8866 1.3186 0.6879 -511.0137 303.9241)">
		<stop  offset="0" style="stop-color:#AFBBE0"/>
		<stop  offset="1" style="stop-color:#D1E9FA"/>
	</linearGradient>
	<path style="fill:url(#SVGID_00000103985026562763536750000007114039455648335551_);" d="M191.83,444.88l8.09-15.51
		c0.75-1.43,3.1-1.7,5.23-0.58l0,0c2.49,1.3,2.59,3.65,0.91,4.95c-1.7,1.31-3.25,2.74-4.21,4.55l-0.56,1.05
		c-1.31,2.49-2.22,5.22-2.1,8.24c0.11,2.62-3.17,2.81-4.85,1.93v0C192.21,448.39,191.08,446.31,191.83,444.88z"/>
	
		<linearGradient id="SVGID_00000124122082696516317860000015202195355332077240_" gradientUnits="userSpaceOnUse" x1="210.8862" y1="480.7782" x2="205.7449" y2="469.3" gradientTransform="matrix(0.4625 -0.8866 1.3186 0.6879 -511.0137 303.9241)">
		<stop  offset="0" style="stop-color:#AFBBE0"/>
		<stop  offset="1" style="stop-color:#D1E9FA"/>
	</linearGradient>
	<path style="fill:url(#SVGID_00000124122082696516317860000015202195355332077240_);" d="M204.14,451.84l8.09-15.51
		c0.75-1.43,3.1-1.7,5.23-0.58h0c2.49,1.3,2.59,3.65,0.91,4.95c-1.7,1.31-3.25,2.74-4.21,4.55l-0.56,1.05
		c-1.31,2.49-2.22,5.22-2.1,8.24c0.11,2.62-3.17,2.81-4.85,1.93h0C204.52,455.36,203.39,453.28,204.14,451.84z"/>
	
		<linearGradient id="SVGID_00000021117054307427215500000014947944561548912523_" gradientUnits="userSpaceOnUse" x1="39.9175" y1="456.742" x2="9.0618" y2="403.2984" gradientTransform="matrix(-1 0 0 1 409.0063 0)">
		<stop  offset="0" style="stop-color:#41348A"/>
		<stop  offset="1" style="stop-color:#8E4A97"/>
	</linearGradient>
	<path style="fill:url(#SVGID_00000021117054307427215500000014947944561548912523_);" d="M361.41,416.79c0,0,2.59,19.09,2.97,37.23
		c8.33,0,9.56-0.73,12.99-5.24c1.04-1.37,0.93-1.49,4.5-3.01c6.6-2.82,0.39-0.17,16.04-6.53c9.96-4.05,20.03-8.35,20.02-16.18
		c-0.01-4.94-8.41-19.73-26.63-20.89c-7.47-0.17-5.75,3.76-4.3,6.97c1.76,3.87,0.65,8.39-5.52,10.71c-5.13,1.93-8.73-0.12-11.8-1.31
		C364.89,416.68,361.41,416.79,361.41,416.79z"/>
	
		<linearGradient id="SVGID_00000065043343705957668410000005189040368741725063_" gradientUnits="userSpaceOnUse" x1="131.197" y1="358.9763" x2="126.0557" y2="347.4981" gradientTransform="matrix(-0.4625 -0.8866 -1.3186 0.6879 920.02 303.9241)">
		<stop  offset="0" style="stop-color:#AFBBE0"/>
		<stop  offset="1" style="stop-color:#D1E9FA"/>
	</linearGradient>
	<path style="fill:url(#SVGID_00000065043343705957668410000005189040368741725063_);" d="M402.34,438.71l-8.09-15.51
		c-0.75-1.43-3.1-1.7-5.23-0.58v0c-2.49,1.3-2.59,3.65-0.91,4.95c1.7,1.31,3.25,2.74,4.21,4.55l0.56,1.05
		c1.31,2.49,2.22,5.22,2.1,8.24c-0.11,2.62,3.17,2.81,4.85,1.93h0C401.95,442.23,403.08,440.15,402.34,438.71z"/>
	
		<linearGradient id="SVGID_00000094585044171689538610000009411485047240812169_" gradientUnits="userSpaceOnUse" x1="130.7141" y1="368.4816" x2="125.5728" y2="357.0034" gradientTransform="matrix(-0.4625 -0.8866 -1.3186 0.6879 920.02 303.9241)">
		<stop  offset="0" style="stop-color:#AFBBE0"/>
		<stop  offset="1" style="stop-color:#D1E9FA"/>
	</linearGradient>
	<path style="fill:url(#SVGID_00000094585044171689538610000009411485047240812169_);" d="M390.03,445.68l-8.09-15.51
		c-0.75-1.43-3.1-1.7-5.23-0.58l0,0c-2.49,1.3-2.59,3.65-0.91,4.95c1.7,1.31,3.25,2.74,4.21,4.55l0.56,1.05
		c1.31,2.49,2.22,5.22,2.1,8.24c-0.11,2.62,3.17,2.81,4.85,1.93l0,0C389.64,449.19,390.77,447.11,390.03,445.68z"/>
</g>
</svg>
