<?xml version="1.0" encoding="utf-8"?>
<!-- Generator: Adobe Illustrator 27.1.1, SVG Export Plug-In . SVG Version: 6.00 Build 0)  -->
<svg version="1.1" xmlns="http://www.w3.org/2000/svg" xmlns:xlink="http://www.w3.org/1999/xlink" x="0px" y="0px"
	 viewBox="0 0 914 914" style="enable-background:new 0 0 914 914;" xml:space="preserve">
<style type="text/css">
	.st0{display:none;}
	.st1{display:inline;fill:#1D1D1B;}
	.st2{fill:#8B3F90;}
	.st3{fill:#91358B;}
</style>
<g id="Calque_2" class="st0">
	<rect y="-4.8" class="st1" width="918.8" height="918.8"/>
</g>
<g id="Calque_1">
	<g id="Lion">
		<path class="st2" d="M490.4,309.5c0,0-19.3,18.6-1.3,25c-3.5,10.1,12.6,8.4,15.6,7.3s24.7-14.2,34.1-13.5s10.7,4,23.7,9
			c9.6,3.7,12.7-4.5,12.7-4.5s5.5,15.5-11.6,17c-5.2,0.5-10.5-0.6-15.3-2.9c-21.5-10.2-24.3-6.5-29.7-5.4c-1.5,0.3-3.6,1.4-5.1,2
			c-7,2.8-17.2,6.8-20.9,6.8c-3.8,0-12.6,1.7-19.5-10.8C466.1,327,477.6,309,490.4,309.5z"/>
		<path class="st2" d="M333.1,336c0,0-1.5,28.2,27.8,16.7c23.8-9.3,25.4-13.2,31.3-11.4s31.2,14.6,41.8,10.8
			c8.9-3.2,9.4-11.4,9.4-18.1c-4.3,7.1-9.1,9-17.1,6.3c-1.2-0.4-7.6-3.3-8.8-3.8c-4.1-1.5-8.2-4.4-15.9-4.3
			c-6.4,0.1-13.2,3.1-16.6,4.9c-2.8,1.5-5.9,2.5-9,3.1c-4.8,0.9-10.4,0.8-10.3-4.5c0.2-9.3,24.1-23.1,34.2-21.9
			c-25.4-5.5-44.8,16.9-52.8,25.1c-2.9,3-7.6,3.2-10.7,0.5C335.3,338.6,334.2,337.5,333.1,336z"/>
		<g>
			<path class="st3" d="M893.1,533.7c-2.8-22.4-29.5-36.7-45.4-40.1c-63.5-13.4-76,23.1-95.4,15.6l117.4-53.7l-172.4,0.7l-6.6-11.9
				c0,0,32.9,18.4,68.3-13.7l49.8,7.2l-41.1-16.2c0,0,16.7-27,44.8-5.2s68.5,6.2,77.9-30.6c8.7-34.2-2.1-46.9-28.3-67.9
				c8.3,32-11.3,53.9-37.5,43.1c-26.2-10.8-27.5-15.5-27.5-15.5l14.8-24l-22.5,19.4c0,0-31.6-21-72.8,24.6c-15.2,15.8-33.7,8-33.7,8
				s-11.6-5.3-28.6,13.8c17.8-6,31,2,37.7,4.5c9.8,3.7,23.9,6.6,31.2-3.7c1.1,14.9-7.8,23.6-16.2,21.2
				c-12.7-3.7-34.3-26.1-54.8-10.3c20.9-0.7,26.5,12.1,38.7,17.9c12.3,5.8,25.9,13,37.9,3.4c8.1-6.5,9-46.4,18.3-59
				c10.6-14.4,27.7-12.5,27.7-12.5l-9.2-5.9c0,0,15.7-4.8,49.5,22.8c7.5,5.6,22,6.1,27.5,6.1c1.6,0,3.1,0.9,3.8,2.4
				c1.5,3.2,0.4,7.7-24.5,2c9.7,16.1,30.9,10.8,40.8,5.3c9.8-5.5,15.5-32.2,8.2-48.2c0,0,25.8,18.1,7.3,59.5
				c-11.7,26.3-18.7,25.9-22.2,22.1c-2.2-2.4-1.8-6.1,0.9-8c5.4-3.8,14.5-11.1,12.8-15.7c-13,12-35.9,13.2-53-0.9
				c-17.1-14-32.2-28.5-47-22c-14.8,6.6-14.3,27.9-23.6,46.5c-3.9,7.7-14.3,27.7-42.1,17.9c-27.8-9.8-51.7-38.9-76-18
				c0,0,26.5-5.5,65.5,53.3c35.9,54.1,61.5,50.6,87.4,44.8c25.1-5.6,74-15.4,94.6,8.7c0,0,8.7,11.4,9.3,21.2
				c0.7,11.9-3.5,27.7-7.5,35.3c0,0,0,0.1-0.1,0.1c1.3-2.8,16.3-36.5-19.9-63.5c-20.6-15.4-49.6,2.2-49.6,2.2
				c-17.9,10.3-17,24.5-49.2,39.1c-8.5,3.8-17.9,5.6-27.1,4.5c-24.2-2.8-40.8-20.7-56-36c-25.9-25.9-31-43.6-53.7-66
				c-28.8-24.2-58.7-17-58.7-17c34.4,18,49.5,45.2,63.7,74.2c13.6,28.3,37.2,52.5,60.7,61.6c15,5.8,47.1,1.6,65.4,22.7
				c10.9,12.6,14,45.3,19.1,63.8c5.1,18.5,26,25.3,26,25.3l-5.8-9.9c17.9,17,48.3,7.7,48.3,7.7s1.7,2.5-6.8,9.7
				c-8.5,7.3-24.1,3-24.1,3l0.5,4.5c0,0,2.6,3.1-17.6-3.2s-30.4-29.5-34-64.1c-3.6-34.5-45.3-38-45.3-38s-42.5-7-57.6-19
				s-31.2-50-39.7-67.8c-8.6-18.1-36.6-53.5-54.8-54.8c6.9,3.6,30,29.2,41.3,55.1c10.2,23.3,22.9,54.4,38.9,74
				c16,19.7,44,22.5,70.1,25.8c26.2,3.2,40.7,35.3,43.1,53.7s16.2,31.9,16.2,31.9c-23.5-3.8-36.6-52.7-50.6-61
				c-8.7-5.1-21.6-12-52.4-7.8c-2,0.3-4.1,0.2-20,2.2l-3.5,0.1c-7.3,0.2-14.6-1.4-21.1-4.8c-0.8-0.4-1.6-0.9-2.3-1.3
				c-3.2-2-6.5-4.4-7.9-5.7c-2.8-2.8-5.2-5.9-6.6-7.9c-10.5-14.4-19.7-45.4-13.4-71.8c-0.4,10.2,8,47.2,15.8,62.9
				c7.8,15.7,21.9,24.1,42.4,21.8c-34.8-3-44.8-82.8-57.1-109.8c-6.1-13.3-28-47.2-57.7-52.4c-9.7-19.1,19.2-39.3,19.2-39.3
				s-10.1-1.1-22.2-5.7c-12-4.6,11.6-27,11.6-27s-16.6,8.6-25.1,10.5c-8.5,1.9-16.3,9-7.1,21.9s16.3,38.5,14.3,47.7
				c-1.6,7.4-17.5,41.1-21.4,44.6c-3.9,3.5-20.5,3.8-28.6,3c-8.1-0.8-12-19.9-13.1-28.7c-0.9-6.6,14.6-13,22.6-15.9
				c5-1.8,10.1-4.5,14.3-7.9c5.3-4.3,10.2-10.2,6.9-15.9c-6.1-10.7-14.3-2.7-14.3-2.7c8.7,1.9,7.6,9.1,7.1,10.9
				c-2.3,8.5-20.6,12.6-20.6,12.6l4.8-9c0.1-0.2-0.2-0.5-0.4-0.3L474,471c-0.4,0.4-0.9,0.8-1.4,1.2c-3.7,3-9,7-10.6,7.1
				c-1.9,0.1-7.5-2.1-8.1-2.4c-23.1-9.4-25.5-21.3-25.7-26.4c-0.1-1.2,0.8-1.8,1.9-1.3c4.5,1.9,7.8,3.8,22.5,3.8
				c6.1,0,26.6-0.3,31.1-10.2c0-0.1-0.1-0.2-0.2-0.2c-6.5,4.6-49.3,7.4-50.5-3.8l-0.1-1c0.3-14.5,26.3-5.3,31.3-9.7
				c1.1-1,0.2-2.7-1.2-2.7c-6.6,0.3-14.9-1.7-17.9-3.4c-3.5-2,2.4-39.8,2.4-39.8l-8.4-3.2c9.5-24-14-18.5-14-18.5
				s10.2,55.9-30.7,66.4c-40.9,10.5-28.2-37.1,7.8-26.2c-46.2-15.4-45.6-13.9-48.9-20l0,6.7c0,0-15.3,2.2-13.8,25.4
				c13.4-14.6,16.5-11.4,16.5-11.4s0,0-1.3,1.8c0,0-9,18,6.5,34.2c-24.2,1.9-32.5-22-32.5-22c0,0-6,6.8-2.5,19.2
				c-16.3-8.9-10.1-33.4-7.3-36l-10.7,6.1c0,0,2-8,14.1-16.1c12.1-8.1,25.8-29.2-0.5-43.1c4.6,22.8-20.7,40-43.9,36
				c-23.2-4.1-26.2-1.7-26.2-1.7c0,0,13.9-0.4,26.2,22.2c12.1,22.3,29,35.8,29,35.8c0,0-14.2-0.4-31.5-20.9
				c-17.3-20.5-34.5-34.1-55.3-30.6c21.5-32.6,68.5-8.4,78.4-27.5l0.6-1.1c-27,4.3-43.3-6.2-56.5-20.1
				c-13.2-13.9-18.8-53.6-22.5-63.5c-4.4-11.9-19.6-24.3-35.6-25.6c-14.5-1.2-17.1-9.8-17.1-16c15,4.9,28.9,2.1,48.8-4.8
				c11.2-3.9,28.9-5.9,42.5,8.8c7.4,8.1,8.9,25.3,21.4,44.2c2.8,4.2,6,8,9.6,11.5c26.6,26.3,49.3,14.5,58.2,7.5L211.1,158.6
				l17.8,58.9c0,0-86.8,11.3-55.4-64.5c-47-6.2-52.8,32.9-53.3,36.8c-0.5,3.9-7.2,50,49.5,65c39.5,9.5,44.2,38.5,44.2,38.5
				l-44.3-4.4l38.6,10.8c3.7,1,6.7,3.8,8,7.4l12.7,34.1l-106.8-52.6l65.3,76.3c0,0-11.5,14.8-38.1-5.8c-26.6-20.6-32.9-32.5-60.9-30
				c-46.2,4.2-56.7,45.2-57.4,47.4c-3.8,12.4-1.9,17.5,2.2,30.5c10.6-8.6,32.2-16.5,47.2-14.4c19.5,2.9,23.2,7.3,23.2,7.3
				s13.5,7.5,19.6,19.6l-31.4,17.4l34.1-10.2c2.4-0.7,5.1,0,6.8,1.8c0,0,27,25.8,75.1,15.2s65.5-9.4,72.9-4.8
				c5,3.2,9.5,14.8-14.3,16.2c-23.9,1.5-216.6,0-216.6,0l85.7,46c0,0-31.1,44.1-58.9,34.1c-27.8-10-46-6.4-52.9,20.6
				c28.1,0,37,20.6,51.3,27.3c14.3,6.8,36.9,15.7,57.8,2.8c20.9-12.9,27.2-18,27.2-18l-42.2,70.7l143.1-78.7c0,0,1,43.9-7.9,51
				c-9,7.1-75.3,21.2-75.4,21.2l66.3-6.3c0,0-2.7,15.3-65.1,31.9c-16.9,4.5-23.8,11.9-29.8,20.7c-15.4,23-3.8,37.7,4.2,51.5
				c5.3,9.3-2.1,10.5-6.1,10.6c-2.8,0-5.6,0.7-8.2,1.8c-8,3.5-20.3,16.6-9.8,35.2c14.7,26.2,46.5,13.3,53.8,0.9
				c0.4-0.6,0.8-1.2,1.2-1.8c1.8-2.6,7.3-12.6,15.6-46.3c2-8.1,7.2-23.2,52.9-35.3L242,794.9l115.7-185.4c0,0,26.5,25.5-0.4,45.4
				c-27,19.9-41.4,34.9-33.6,74l-29.4,32.8l33.6-20c0,0,28.2,34,20,66.8c-0.3,1.2-3,9.3-3.5,10.4c-7.9,17.3-34,32.4-34,32.4
				c0,0,42.8,4.3,74.9-11.3c25.2-12.3,27.2-40.2,27.2-40.2l45.8,56V698.5c2.6,20.3,38.6,45.8,41,56.7c3,14.5-23,72.8-23,72.8
				l16.8-21.4c0,0,0.1,47.2,40.3,63.2c1.8,0.7,4.4,1.8,6.7,2.9c2.7,1.3,5,3.2,6.5,5.8c5.6,9.4-11.2,7.7-14,10
				c-3.4,2.8-1.9,5.8,8.8,7c10.8,1.2,31-4.9,36.1-29.3c3.2-15.4-4.7-29.2-15.7-37.4c-6.4-4.7-11-11.5-12.7-19.2
				c-1.6-6.8-1.2-13.1,1.8-18.2l56,35.7l-79-228.5c0,0,22.7,25.2,31.9,71.2c9.2,46.1,35.4,76.3,53.3,83.6c9.9,4,25.8,0.3,25.8,0.3
				c-7.2-0.8-44.3-18.3-54.6-70c-11.9-59.3-26.9-75.6-31.7-92.3c-4.9-17.2-2-37.7,6.1-55.3c-3.1,40.6,12.7,58.2,35.3,80.5
				c0,0,0,0,13.6,14.4s23.6,42,43.7,64.7c20.1,22.7,46.1,8.2,63.1,48.5s-25.2,74.4-25.2,74.4s34.7-54.1-10.1-78.8
				c-38.8-21.5-60.9-77.8-60.9-77.8c-8.6-19.6-24.7-33-24.7-33s16.2,52.7,24.2,67.5s19.2,33.3,39.7,44.4
				c18.4,10,34.2,24.5,36.8,40.8c2.6,16.4-25.4,55-25.4,55s33.5-4.2,50.1-43.9c12.8-30.7,10.5-45.4,10.5-45.4l26.9,4.6L643.7,638.9
				c0,0,32.3-0.2,44.2,5.9c6.7,3.4,37.5,13.2,59.2,73.8l4.2-13.8c0,0,61.3,44,96.9-21.5c-53.4,12.8-64.7-20.5-64.7-20.5l-5,4.8
				c0,0-9.7-19.4-6.7-35.6l55.2,0.1l-80-48c0,0,31.2-1.9,40-14l24.7,29.1l-14.6-35.9c0,0,66-39.7,70.4-3.4c0,0-4.7,29.2,2.7,28.7
				C885.6,587.8,897.3,567.2,893.1,533.7z M762,398.2c12.6-37.3,25.3-19.8,23.5-11.5c-2.9,12.9-25.7,49.9-67.1,56.7
				C718.4,443.4,749.4,435.5,762,398.2z M140.8,175.4c2.9-7.9,7.7-12.5,13.7-15.3c5.9-2.8,9-0.7,9-0.7s-17.7,36.8,14.7,56.6
				c11,8.1,20.3,9.4,20.3,9.4s-25.1,5.2-45.3-5.9C133,208.5,138.2,182.6,140.8,175.4z M37.1,396.3c9.5-21.6,30.5-27.4,41-27.5
				c2.8,0,25.1-1.8,24.9,24.3C103,393.1,67.5,375.6,37.1,396.3z M105.9,366.2c-9.5-7-28.2-3-35.7-3.5c-9.9-0.7-15.2-9.7-1.6-17.4
				c13.6-7.7,24.1-4.7,31.9-0.3c5.8,3.3,10.5,6.3,10.5,6.3v-8.5c0,0,12.7,1,25.4,16.4c6.5,7.9,13.6,15.4,22.6,20.2
				c12.8,6.9,26.4,12.1,43.7,6.4c0,0-7.5,30.9-45.9,20.5C118.5,396.1,119.8,376.5,105.9,366.2z M226,423.1
				c-1.6,10.5-20.4,16.9-41.5,16.9c-21,0-34.7-4.2-34.7-12.5s21.6-17.3,42.6-17.3S227.2,415,226,423.1z M494.2,524.4
				c0,0,6.6,0.5,0,4.8c-7.4,4.8-42.9,5.6-47.9,4.8c-4.6-0.8-18.5-1.1-24.8-6.1c-0.7-0.6-1.2-1.4-1.5-2.3c-0.2-0.6,0.3-1.2,0.9-1.2
				H494.2z M409.9,451.9c2.1-6.1,11.8-10.3,15-3.9c0.2,0.5-3.1-0.6-5.8,4.2c-6.2,13.7,19,20.4,19,20.4
				C412.3,475.6,407.5,459.2,409.9,451.9z M450.2,488.3c5.6,3.9-1.6,31-13.5,31c-13,0-22.2-4.2-27.7-15.1c18,6.1,19-2,19-2
				s-18.1-1.1-22.9-11.6c14.7,6.7,18.5-0.3,18.5-0.3s-21.3-6.3-25.4-15.9C398.3,474.3,438.4,480.1,450.2,488.3z M286.5,457
				c2.3-2.2,11.2-6.9,14.1-3.9c3.8,3.9-1.6,9.7-4.9,12c-6.2,4.3-29.7,20.1-61.4,11.4C234.3,476.6,267,475.1,286.5,457z M174.8,474.3
				c19.1-6.1,31.5,8.1,61.8,13.2c30.3,5.1,59.1-15.8,59.1-15.8c-2.1,23.9-46.3,37.9-73.6,23.2c-31.9-17.2-43.3-15.7-53.2-6.4
				c17-1.6,32.9,9.1,37.4,12.2c4.5,3.1,19.7,18.7,47.4,10.3c-11.2,13.7-31.7,19-59.4-2.5c-27.7-21.4-46.1-8.1-46.1-8.1
				S155.7,480.4,174.8,474.3z M73.8,558.2c-13.1-11.9-38.9-7.3-38.9-7.3s8.7-19.1,29.6-9.3c29,13.5,44.7-3.4,44.7-3.4
				C122.5,554,90.2,573.2,73.8,558.2z M145.3,570c-10.2,9.5-52.3,38.4-61.1,2.4c0,0,20.7,10.6,55.5-27.9c14.1-13,26.8-10.7,34.7-6.3
				C155.7,550.9,160.9,555.5,145.3,570z M199,534.7c-37.5-19.3-57.6-3.8-57.6-3.8c10.3-20.1,14.8-19.8,23.1-21.3
				c11.7-2.2,38.2,13.5,57.4,20.2c19.2,6.7,46.2-7.3,60.7-27.8C269.5,538.8,236.6,554,199,534.7z M256.9,668.5
				c-11.6,11.4-33.1,20.3-42.5,13.7c-6.1-4.3-5.3-9.1,0.6-10.4c7.4-1.7,10.5,0,26.8-13.5c8.5-7.1,15-13.2,18.8-14.7
				c3-1.2,6.5-0.5,8.5,2C273.6,651.2,263.9,661.7,256.9,668.5z M153.8,686.7c9-20.5,37.8-26.3,58.2-30.7
				c18.8-4.1,29.2-15.5,40.4-31.1c10.6-14.7,11.9-27.1,11.9-27.1s1.1,46.9-33.7,61c-21.6,8.8-35.3,16.4-46.1,24.3
				C173.8,690.9,152.4,700.9,153.8,686.7z M160.3,782.2c-23.4,11.1-28.5-10.3-27.8-17c1.2-11.2,11.8-17.7,15.8-13.5
				c3.3,3.5-3.3,6,0.2,10.3c3.4,4.3,18-4.1,17.1-22.9C165.6,739.1,183.8,771.1,160.3,782.2z M340.7,557.2
				c4.1,32.4-6.5,74.2-30.6,99.3c0,0-32.4,32.3-69.2,38.7s-60.1-1.1-68.6,11.4c15.8,1.2,14.9,12.2,14.9,12.2l12.2-2.1
				c0,0-9.1,11.7-13.3,38.6s-14.7,22.4-14.7,22.4s17-11.3,0.8-41.2c-16.2-29.8-12.3-34.7-1.8-39c20-8.2,43-2.6,63-8.2
				c20-5.7,49.7-20.3,52.7-57.2c3-36.9-2.8-88,10.5-115.1c13.3-27.1,36.1-45.5,36.1-45.5s-36.2,36.2-35.9,77.1
				c0.3,40.9,2.7,64,0.1,69c11.7-17.3,8.4-63.1,15.2-85.2s10.6-40.6,25.4-49.6c-10.5,13.8-20.1,60.7-18.6,77.4
				c1.5,16.3-9.2,83.7-22.5,90.7c23.1-5.5,35-82,34.8-110c-0.2-27.6,11.9-43,11.9-43S337,527.6,340.7,557.2z M340.9,841.7
				c15.3-10.7,29.2-36.9,19.5-63.8c-6.7-18.7-23.7-44.5-23-73.1s43.5-51.4,48.9-56.5s19.8-7.7-10.7-50.7c-30.5-43-17-83.7-17-83.7
				c-8,23.9,22.7,68.2,43.6,98.3c21,30.1-7.9,44.8-16.1,49.6s-29.7,19.9-34.9,41.6c-5.2,21.6,10.8,44.7,14.6,54.7
				c7.6,19.7,12.9,36.5,6.6,57.4C366.5,836.5,325.6,852.4,340.9,841.7z M432.8,665.6c-34.7,31.7-30.5,78.6-30.5,78.6
				c9.9,83.1-35.1,96.3-35.1,96.3c16.6-11.6,19.2-44.5,13.3-62.5c-5.9-18.1-14.9-47.2-17.3-67.1c-2.4-20,20.9-37.1,37.9-52.8
				s13.3-24.2,11.8-45.7c-1.5-21.5-31.9-42.3-28-74.2c2.5,19.6,21.3,30.1,37.2,65.5c15.1,33.7,0.8,45.9-22.2,70.2s-23,27.1-24,40.6
				c-1,13.5,10.5,33.7,15.3,67.1c5.5-2.4-7.5-66.4,3.8-86.3c11.2-19.9,27.7-28.7,37.7-52.9s-2.9-58.1-17.5-85
				C439,573.9,467.4,634,432.8,665.6z M453.7,577.5c-1.1-1.4-5.8-6.8-7.3-7.9c-4.9-3.7-7.6-9.3-4.1-11.6c2.3-1.5,5.8-0.1,8.2,2.1
				c5,4.6,8.3,8.9,10.2,15.2c2.5,8,2.7,16.8,2.7,22.5C463.4,597.7,460.5,586.2,453.7,577.5z M471.4,641.7
				c17.3-47.7-2.5-71.7-2.5-71.7s27.3,23.9,12.4,68.7c-14.9,44.8,0.9,72.1,0.9,72.1S454.1,689.3,471.4,641.7z M557.8,878.3
				c3.8-11.8-4.6-13.7-8.3-14.6c-3.7-0.9-17.8-2.5-24.1-8.1c-5.4-4.8-7.8-10.6-8.5-15.1c3.9,5.2,10.8,12.3,32.1,13.8
				C557.1,855,570.6,864.8,557.8,878.3z M531.3,700.2c36.9,29,29.1,48.2,29.1,48.2c-2.2,13.3-38,50.7-2.5,85.8
				c22.5,22.1,11.9,36.6,11.9,36.6s3.5-24.7-27.1-24.7c-20.5,0-33.2-30.6-28.4-42c24.3-57.3-4.3-72.5-4.3-72.5s-45.9-30.4-24.4-85.7
				c21.5-55.4,2.6-85.5,2.6-85.5c13.7,8.1,19.6,35.2,14.7,50.5c-4.9,15.3-6.9,49-6.9,49s-0.5,36.8,14.9,44.5
				c-15.7-18.9-7-72.1-1-90.5c6-18.4,6.2-43.9-3.1-62.9c24.4,16.3,11.8,83,11.8,83S507.8,681.7,531.3,700.2z M570,549.1
				c3-18.5-5.4-45.6-5.4-45.6s23,13.6,16.3,63.5c-1,18.8,4.6,30.7,4.6,30.7S564.6,581.8,570,549.1z M719.2,658.1
				c0-5.8-9.3-9.7-16.7-12.6c-1.3-0.5-2.3-1.8-2.4-3.2c-0.1-1.1,0.4-2.2,2.1-2.9c1.2-0.5,2.7-0.5,3.9-0.1
				C724.5,644.4,719.2,658.1,719.2,658.1z M789.8,556.2c1.2-12.2,18.3-35.1,36.2-39.6c17.9-4.5,32,0.6,38.5,18.2
				C834.1,498.2,789.8,556.2,789.8,556.2z"/>
		</g>
		<g>
			<path class="st3" d="M502.5,475.5c0,0-17,7-23.1,12.1c-2.1,1.8-2.1,4.2-4.5,6.3c-0.5,0.4-0.2,1.3,0.5,1.3
				C485.2,495.5,500.9,486.4,502.5,475.5z"/>
			<path class="st3" d="M510.4,487.5c-2.8,1.2-17.1,7.4-22.6,11.9c-2.4,1.9-2.1,4.8-5.4,7c-0.2,0.1-0.1,0.5,0.1,0.5
				c9.6,1.1,26.2-7.9,28.3-19.1C510.9,487.5,510.7,487.4,510.4,487.5z"/>
			<path class="st3" d="M639.7,740.3c-14.1-7.8-23.7-33.2-28.3-42.8c-3.6-7.5-8.1-19.4-10.5-25.2c-9.2-22.7-11.8-56.8-36.3-68.8
				c15.3,14.6,23.5,54.9,23.5,54.5s14.3,75.5,45.8,87.2c46,17.1,47.9,31.3,47.9,31.3C680.6,763.8,675.2,759.7,639.7,740.3z"/>
			<path class="st3" d="M573,402.8c8.7,2.6,22.6-10.5,52.4,1.2c0,0-18.9-23.6-49.4-11.7C567.5,396.4,568.9,401.5,573,402.8z"/>
			<path class="st3" d="M589.5,378.5c6.8,0.8,14.7-11.8,38.4-7c0,0-17.7-16.1-38-1.9C584.4,374.2,586.3,378.2,589.5,378.5z"/>
			<path class="st3" d="M583.9,356.2c4.3,0,8.3-8.5,23.5-7.2c0,0-12.3-8.8-23.9,1.6C580.4,353.9,581.9,356.2,583.9,356.2z"/>
		</g>
		<g>
			<path class="st3" d="M801.2,215.7c22.1-7.7,37.5,0.1,37.5,0.1s0.9-22.3-23-36.5c-26.5-15.7-60.3-4.3-79.5,25.5l-4.8-17.4
				c0,0-1.5,48.7-31.3,63.2c-29.8,14.4-36.8,5.8-58.9,26.8c-15.2,14.5-7.2,26.8-33.8,41c11,5.4,23.8-0.4,33.7-15.7
				c7.9-12.2,22.8-21.9,36.8-16.5c8.2,3.2,29,10.4,41.3,5.8c12.2-4.6,26.9-16.6,26.9-48.4c0-31.8,13.2-56.2,42.1-62.5
				c19.7-4.3,34.5,11,40.7,25.3c-17.7-17.3-51.4-25.3-62.5,10.1c10.4-10.8,24.3-12.9,31-11.5c3.8,0.8,4.7,7.5,0.9,8.1
				c-13.4,2.1-19.8,17.2-21.7,21c-1.8,3.6-5.2,14.8-5.4,38.5c-0.1,20-10.8,40.4-23.4,48.9c-12.9,8.7-42.1,20.3-61.6,24.9
				c-18.2,4.2-28.9,26.3-28.9,26.3l168.3-75.8l-39.1-0.1c-2.2,0-11.1,1.4-9.8-14.7C778,266,774.6,224.9,801.2,215.7z M714.9,272.5
				c0,0,7,3.3,3.8,10.8c-1.7,3.8-8.5,8.9-23.7,1.3c-17.1-8.6-29.1-5.2-29.1-5.2s0-2.4,13.6-6.5c9.7-2.9,18.9-7.5,27.1-13.4
				c11.1-8,20.5-15.2,24.8-29.6C739.6,238.1,728.8,260.6,714.9,272.5z"/>
			<path class="st3" d="M651.4,358.4c0,0,23.1-26.6,63.8-35.7c40.7-9.1,38.6-45.3,38.6-45.3s-6.8,29.2-57.4,34
				C653.6,315.4,651.4,358.4,651.4,358.4z"/>
			<path class="st3" d="M668.7,299.4c-26.4,4.4-39.1,34.7-41.9,42.5c-0.3,0.8,0.5,1.8,1.3,1.4c13-7.8,20-17.1,20-17.1s3.1-4.2,8-8.7
				c7.4-6.8,17-10.6,27-11.1c21.2-1,22.7-3.7,22.7-3.7S699.2,295.8,668.7,299.4z"/>
			<path class="st3" d="M705.8,512.3c-23-33.3-43.6-59-64.6-74.8c-11.9-9-24.9-12.7-51.2-7.6c0,0,42.6-3.8,87.2,72.2
				c5.1,8.8,22.6,30.8,31.2,36.2c31.5,20,66.3,5.5,92.3-25.8C779.6,527.4,731.1,550.2,705.8,512.3z"/>
			<path class="st3" d="M268.9,304.8c-1.8-17.1,1.4-46-29.2-55.5c0,0,24.8,13.3,13.2,51.2c-11.6,37.9,21.8,51.5,33.7,51.2
				c7.6-0.2,16.3-1.8,25.5-13.8C279.5,343,270.7,321.9,268.9,304.8z"/>
			<path class="st3" d="M509.2,220c-13.4,14.4-7,31.2-4.6,34.2c2,2.5,4.7,7.2,13.3,9.7C517.9,264,500.6,240.6,509.2,220z"/>
			<path class="st3" d="M526.6,161.2c-0.2-11.4-4.5-17.8-4.5-17.8s3.2,16-23.8,48.7c-26.9,32.6-19.6,55.7-0.6,71.8
				c0,0-19.4-31.8,2.2-57.6C518.9,183.7,526.9,172.8,526.6,161.2z"/>
			<path class="st3" d="M594.6,263.3c0,0,6-8.3,4.1-33.4c-0.9-11.9,5.9-36,23.5-52c12.8-11.6,54-24.3,52.9-52.3
				c0,0-2.2,22.5-46.6,38.5c-14.2,5.1-27.5,18.9-33.4,32.8c-4.9,11.6-6.9,23.3-7.1,29.9c-0.1,2.7,0.1,9.8-0.2,17.3
				c-0.3,8.4,1.7,32.5-37.3,40.4C581.8,291.2,594.6,263.3,594.6,263.3z"/>
			<path class="st3" d="M616.9,259.2c5.5-44.2,5.8-53.8,20.8-67.3s32.9-24.7,36-40.4c-9.5,15.3-32.1,28.7-40.8,34.2
				c-7,4.4-12.5,9.7-14.9,14.3c-4.8,9.1-5.2,19.4-9.6,44.2c-0.7,4.1-1.6,13.1-2.1,17.2c-2.6,23.9-25.6,33.4-31.3,34.1
				C575.1,295.6,611.4,303.4,616.9,259.2z"/>
			<path class="st3" d="M577.8,229.9c1.6-15,1.7-13,3.9-30.1c4.8-35.5,39-44.5,39-44.5s40.9-15.8,44.6-37.7s-19.8-44-19.8-44
				s12-0.9,26.7,12.8s15.8,20.6,15.3,41.5c-0.5,21-15.7,52.5-41.6,77.9c-11.6,11.4-13.8,48.6-15.6,58c-1.9,9.4-17.4,31.8-35.7,40.2
				c16,1.7,31.9-19.1,31.9-19.1l102.2-133.6l-49.2,25.8c8.9-13.4,12.9-34.3,12.9-51.7c0-24.7-11.6-48.6-40.1-56.3
				c-16.6-4.5-20.8,0.2-21.4,4.9c-0.4,3.3,1.1,6.5,3.7,8.6c4.4,3.5,18.1,16.6,17.7,31.6c1.9,26.2-48.5,38.5-48.5,38.5l-9.2-35.2
				l-0.5,38.6c-23.5,11.9-25.9,37.2-25.9,37.2s-1.7,17.4-1.8,18.2c-2.3,34.5-13.7,38.9-27.7,49.2c-14.1,10.4-18.9,20.3-18.9,20.3
				c32.7-6.5,39.6-15.4,45.4-21C575.1,250.6,576.9,238.5,577.8,229.9z"/>
		</g>
		<g>
			<path class="st3" d="M516.3,52.9c0,0-8.6,6.9-12.2,20.6c-2.5,9.7-0.2,24.8,4.8,33.5c12.2,21.4,21.3,28.3,23.7,31.2
				c9.9,12.1,18,24.8,2.5,50.1c-15.4,25.3-26.2,36.7-8.5,69.8l60.1-171.7c0,0-44.4,54.5-46.7,51.8c-2.3-2.6-39.3-32.8-20.5-72.3
				c9.3-14.3,16.7-18.5,19.3-20.1c1.9-1.2,4.2-2.7,5.9-4.1c5.7-3.5,11.2-18.1-7.6-23c-32-7.3-59.1,12.8-64.2,20.2
				c-5,7.4-21.7,21.8-5.8,69.6c13.4,40.1-6.9,58.8-6.9,58.8L438,132.8l17.6,44.1c0,0-26.1,34.9-12.8,72.4
				c13.3,37.5,41,45.8,43.9,19.6c-16.5,12.2-30.5-5.4-32.3-17.2c-1.8-11.8,1.3-22.5,4-27.3c-1,22.6,13.9,36.2,18.8,35.6
				c-11.1-16.6-10.3-39.6-2.5-51.8c7.8-12.2,25.9-35.5,31.2-52c2.6-8.2,7.4-22.9-12.8-58.5c-21.7-38.3,8.8-63,19.3-66.9
				s26.5-8.5,31.5-0.6C549,37.9,527.1,44.1,516.3,52.9z"/>
			<path class="st3" d="M345.5,244.4c-30.1-22.8-45.4-29.8-46.4-54.5c-1.1-24.8,21.3-75.3,27.3-85c6-9.6,17.1-50.2-33.8-57.5
				c45.4-11.7,66.8,28.3,64.7,51.8c-2,23.5-8.6,60.6,1.6,75.1c25,35.2,65.6,32.3,74.7,53.7L407.2,82.4L382.2,184
				c0,0-25.6,2.8-22.2-56s0.8-81.5-36.9-87.7c-50.8-8.3-74.3,14.2-77.3,24.9c-3.4,12,0.1,20.3,20.9,16.4
				c24.1-4.5,43.8,0.4,27.8,43.9c-10,27-13.4,50.2-13.4,50.2l-38.6-7.3l39,19.1c0,0,4.2,43.9,49.8,62.8
				c29.6,14.9,26.3,42.7,26.3,42.7S375.7,267.2,345.5,244.4z"/>
			<path class="st3" d="M388,217.5c-39.4-9.1-54.9-31.7-52.7-58.5c-8.4,14.8-17.9,49.7,44.6,63.7s48.7,51.2,48.7,51.2
				C444,245.2,427.4,226.6,388,217.5z"/>
			<path class="st3" d="M402.3,238.4c-19.2-10.3-61.2-20-70.2-30c-11.6-12.8-18.8-16,0.9-63.2c19.7-47.2,23.5-61.7,0.9-84.4
				c0,0,15.8,26.4,1,57.2c-14.8,30.8-34.1,64.2-23,82c11.1,17.9,34.5,29.4,69.7,36.5s23.1,29.8,10.6,30c-12.5,0.2-14.5-22.9-32-25.3
				c10.8,13.3,1.7,30.9,19.1,37.5c7.3,2.8,15.6,2.3,22.5-1.4C420.3,267.3,412.5,243.9,402.3,238.4z"/>
			<path class="st3" d="M277.1,287.3c-2,22.1,4.2,31.9,11.8,38.1c6.8,5.5,23.1,7.3,34.2-10.4C293.8,319.3,277.1,287.3,277.1,287.3z"
				/>
			<path class="st3" d="M510.9,719.7c27.1,12.1,24,48,24,48c13.5-17.6,13.6-29.2,10.4-38.5C542.5,720.9,529.7,710.7,510.9,719.7z"/>
		</g>
		<g id="Yeux">
			<path class="st3" d="M404.2,352.8c-21-10.7-44,17.3-49.6,14.7c0,0,6.2,13.4,33.5,20.4c24.1,6.2,26,8.6,26,8.6
				S427.6,364.8,404.2,352.8z M377.8,371.7c0-8.3,6.7-15,15-15c1.5,0,3,0.2,4.4,0.7c-11.1,4-11.9,21.3-11.9,27.2
				C380.7,382,377.8,377.2,377.8,371.7z M392.7,386.6c-2,0-3.8-0.4-5.6-1.1c7-4,12.7-12.7,12.7-27c4.7,2.5,7.8,7.5,7.8,13.2
				C407.7,379.9,401,386.6,392.7,386.6z"/>
			<path class="st3" d="M491.9,396.5c0,0,1.9-2.3,26-8.6c27.3-7,33.5-20.4,33.5-20.4c-5.7,2.6-28.6-25.4-49.6-14.7
				C478.4,364.8,491.9,396.5,491.9,396.5z M520.9,384.6c0-5.9-0.8-23.2-11.9-27.2c1.4-0.4,2.8-0.7,4.4-0.7c8.3,0,15,6.7,15,15
				C528.3,377.2,525.3,382,520.9,384.6z M498.4,371.7c0-5.7,3.2-10.6,7.8-13.2c0,14.3,5.7,23,12.7,27c-1.7,0.7-3.6,1.1-5.6,1.1
				C505.1,386.6,498.4,379.9,498.4,371.7z"/>
		</g>
	</g>
</g>
</svg>
